<?xml version="1.0" standalone="no"?>
<!DOCTYPE svg PUBLIC "-//W3C//DTD SVG 20010904//EN"
 "http://www.w3.org/TR/2001/REC-SVG-20010904/DTD/svg10.dtd">
<svg version="1.0" xmlns="http://www.w3.org/2000/svg"
 width="2936.000000pt" height="1440.000000pt" viewBox="0 0 2936.000000 1440.000000"
 preserveAspectRatio="xMidYMid meet">
<metadata>
Created by potrace 1.16, written by Peter Selinger 2001-2019
</metadata>
<g transform="translate(0.000000,1440.000000) scale(0.100000,-0.100000)"
fill="#000000" stroke="none">
<path d="M11924 10090 c-347 -49 -581 -327 -624 -741 -15 -152 -13 -555 5
-669 30 -201 95 -346 210 -468 83 -88 165 -141 280 -179 75 -26 91 -27 260
-27 169 0 185 1 260 27 278 92 440 320 484 677 14 108 14 550 1 660 -17 134
-47 237 -102 349 -43 86 -65 118 -129 182 -84 84 -190 145 -304 174 -73 19
-258 27 -341 15z m308 -45 c322 -67 505 -330 539 -774 14 -175 5 -494 -16
-618 -56 -325 -223 -528 -495 -600 -47 -13 -103 -17 -205 -17 -232 0 -359 48
-501 189 -68 66 -89 96 -127 175 -66 135 -86 229 -99 455 -12 213 1 515 27
623 40 169 129 329 233 422 71 64 195 126 287 144 96 19 268 19 357 1z"/>
<path d="M11947 9725 c-36 -12 -72 -38 -105 -75 -28 -32 -72 -139 -87 -215
-11 -53 -18 -158 -22 -315 -11 -464 32 -649 171 -735 42 -26 61 -30 131 -33
68 -3 91 0 133 18 89 38 147 126 179 272 23 103 23 655 1 773 -45 231 -130
326 -292 325 -39 -1 -88 -7 -109 -15z m225 -47 c76 -43 129 -160 148 -327 13
-109 13 -565 0 -651 -22 -150 -72 -246 -150 -290 -37 -20 -58 -25 -120 -25
-63 0 -82 4 -121 27 -80 47 -127 139 -149 295 -15 104 -8 665 10 738 18 75 64
166 104 204 64 62 194 76 278 29z"/>
<path d="M14138 10085 c-233 -44 -395 -176 -463 -378 -21 -63 -25 -94 -25
-189 0 -190 36 -284 155 -404 82 -83 168 -135 360 -219 250 -110 289 -137 321
-222 23 -60 15 -177 -15 -226 -41 -66 -153 -95 -250 -62 -89 29 -140 113 -156
258 l-6 57 -197 0 c-108 0 -214 -3 -236 -7 l-39 -6 6 -81 c20 -279 197 -498
467 -576 115 -34 354 -39 472 -11 230 55 380 194 434 402 23 86 22 263 -1 349
-25 96 -72 177 -145 250 -81 81 -178 138 -390 229 -246 107 -309 164 -310 282
0 113 74 189 184 189 122 -1 183 -68 203 -222 l6 -48 233 0 234 0 0 53 c-1
122 -47 262 -119 357 -79 105 -187 175 -326 213 -95 25 -294 31 -397 12z m427
-59 c218 -75 345 -234 373 -465 5 -39 6 -73 4 -76 -3 -3 -95 -5 -204 -5 l-198
0 0 28 c0 43 -25 119 -54 163 -55 82 -187 109 -289 60 -109 -53 -148 -204 -82
-317 43 -74 107 -114 345 -216 169 -73 263 -130 336 -203 105 -105 153 -231
154 -406 0 -275 -150 -469 -416 -536 -95 -24 -331 -23 -429 1 -274 67 -449
270 -479 554 l-5 52 202 0 203 0 12 -70 c22 -127 83 -212 171 -239 69 -20 161
-14 219 15 42 21 56 34 76 77 55 113 41 239 -36 323 -43 46 -107 81 -340 184
-317 140 -448 303 -448 560 0 275 163 471 445 536 40 9 109 13 210 11 133 -3
159 -6 230 -31z"/>
<path d="M15785 10090 c-218 -35 -399 -164 -497 -355 -53 -104 -90 -216 -109
-330 -21 -126 -18 -655 4 -766 44 -219 131 -381 267 -495 61 -51 189 -109 282
-128 101 -21 297 -21 391 0 247 55 433 238 510 505 42 142 50 247 44 580 -4
235 -9 321 -22 378 -72 319 -242 517 -505 591 -87 24 -272 34 -365 20z m312
-45 c213 -40 385 -189 472 -407 54 -136 71 -247 78 -503 12 -500 -45 -732
-227 -916 -117 -119 -247 -174 -441 -186 -166 -10 -339 28 -454 102 -144 92
-251 260 -302 475 -20 87 -30 578 -14 731 33 310 170 543 382 648 46 23 116
48 154 55 94 19 256 19 352 1z"/>
<path d="M15805 9716 c-82 -38 -139 -122 -173 -253 -15 -58 -17 -119 -17 -428
0 -318 2 -367 18 -424 53 -186 136 -261 286 -261 159 0 241 76 293 268 17 64
21 118 25 317 9 417 -26 630 -120 734 -65 71 -214 93 -312 47z m237 -38 c76
-42 128 -150 148 -308 16 -130 12 -619 -6 -708 -37 -182 -108 -266 -238 -279
-145 -15 -242 77 -281 266 -36 170 -27 710 14 843 37 117 99 187 184 209 51
13 133 3 179 -23z"/>
<path d="M9670 10066 c0 -7 364 -882 499 -1201 l51 -120 0 -363 0 -362 238 2
237 3 5 375 5 375 66 160 c151 367 459 1123 459 1129 0 4 -113 5 -252 4 l-251
-3 -133 -399 c-73 -219 -135 -400 -137 -403 -5 -4 -127 341 -218 615 l-64 192
-252 0 c-139 0 -253 -2 -253 -4z m595 -371 c136 -398 187 -537 196 -527 4 4
70 199 149 435 l142 427 215 0 c168 0 214 -3 210 -12 -118 -287 -432 -1056
-468 -1146 l-49 -122 0 -345 0 -345 -205 0 -205 0 0 351 0 351 -189 452 c-104
248 -216 516 -249 596 -33 80 -68 162 -76 183 l-16 37 216 -2 216 -3 113 -330z"/>
<path d="M16779 10023 c49 -124 282 -690 400 -971 l131 -312 0 -360 0 -360
238 2 237 3 5 380 5 380 121 290 c134 320 404 982 404 990 0 3 -113 5 -250 5
-192 0 -252 -3 -255 -12 -2 -7 -64 -190 -136 -407 l-133 -395 -19 55 c-10 30
-72 212 -137 404 l-117 350 -257 3 -256 2 19 -47z m571 -300 c117 -351 189
-553 199 -553 3 0 71 194 151 430 l145 430 214 0 c167 0 212 -3 208 -12 -3 -7
-120 -294 -261 -637 l-256 -624 0 -349 0 -348 -205 0 -205 0 0 349 0 349 -96
229 c-157 372 -424 1025 -424 1034 0 5 96 9 214 9 l214 0 102 -307z"/>
<path d="M19082 9048 l3 -1023 240 -3 c348 -4 520 9 636 48 251 84 409 264
482 547 21 83 22 107 22 438 -1 346 -1 351 -27 447 -64 233 -183 385 -382 485
-142 71 -177 76 -599 81 l-377 4 2 -1024z m786 966 c149 -30 302 -120 396
-232 49 -58 118 -205 140 -295 24 -100 35 -238 36 -440 0 -300 -26 -453 -104
-612 -101 -204 -282 -330 -525 -365 -36 -5 -208 -10 -383 -10 l-316 0 -1 985
-2 985 341 0 c272 0 356 -3 418 -16z"/>
<path d="M19548 9713 l-28 -4 0 -665 0 -664 114 0 c189 0 276 39 335 150 52
97 61 173 61 508 -1 335 -10 417 -60 518 -35 72 -84 117 -150 139 -46 15 -224
27 -272 18z m288 -64 c57 -29 106 -94 129 -172 27 -91 37 -251 32 -517 -6
-318 -23 -397 -105 -476 -48 -46 -108 -63 -232 -65 l-105 -2 -3 633 -2 632
119 -4 c102 -3 125 -8 167 -29z"/>
<path d="M20692 9048 l3 -1023 580 -3 c319 -1 595 0 613 3 l32 6 0 194 0 195
-380 0 -380 0 2 233 3 232 318 3 317 2 0 190 0 190 -320 0 -320 0 0 205 0 205
380 0 380 0 0 195 0 195 -615 0 -615 0 2 -1022z m1196 825 l-3 -158 -377 1
-378 1 0 -238 0 -239 318 -2 317 -3 3 -157 3 -158 -321 0 -320 0 0 -270 0
-270 380 0 380 0 0 -160 0 -160 -580 0 -580 0 0 888 c0 488 -3 931 -7 985 l-6
97 587 0 587 0 -3 -157z"/>
<path d="M22849 8363 c-70 -186 -379 -1080 -379 -1100 0 -1 34 -3 75 -3 85 0
85 1 56 -81 -10 -30 -16 -68 -14 -85 l5 -31 286 -6 c157 -4 340 -7 406 -7
l121 0 220 271 c121 150 271 334 333 411 l112 139 0 132 c0 73 -3 162 -6 199
l-7 67 -50 3 -51 3 3 58 2 57 -551 0 -550 0 -11 -27z m1071 -179 l0 -175 -147
-180 -147 -180 -25 48 c-17 33 -27 71 -31 118 -4 58 -8 71 -27 80 -15 8 -19
15 -12 26 11 20 -9 86 -29 94 -18 7 -39 -10 -48 -38 -3 -12 -18 -39 -32 -60
l-25 -38 22 -45 c12 -25 31 -85 42 -132 11 -48 29 -105 41 -128 l20 -42 -23
-31 -23 -31 -21 92 c-12 51 -31 111 -42 133 -31 59 -198 217 -225 213 -33 -5
-31 -21 8 -63 40 -44 73 -108 74 -141 0 -16 -11 -26 -40 -38 -53 -21 -68 -20
-89 6 l-18 22 -49 -46 c-27 -24 -78 -62 -114 -83 -36 -21 -80 -50 -98 -63 -33
-25 -84 -120 -97 -179 l-7 -33 -119 0 c-65 0 -119 4 -119 8 0 15 215 648 291
860 l74 202 517 0 518 0 0 -176z m112 -99 c1 -85 2 -166 2 -180 1 -19 -81
-127 -319 -420 l-320 -394 -382 -1 -383 0 1 28 c0 15 8 52 17 82 l18 55 270 3
270 2 33 -40 c17 -22 36 -40 41 -40 5 0 44 44 87 98 43 53 130 160 194 237 63
77 179 219 257 314 l142 175 0 118 0 118 35 0 35 0 2 -155z m-532 -215 c32 0
45 -13 33 -32 -17 -28 -10 -75 19 -127 l30 -54 -19 -38 c-10 -21 -21 -39 -24
-39 -11 0 -28 50 -44 128 -8 40 -24 95 -36 122 -11 27 -18 54 -14 61 6 8 10 7
17 -5 5 -9 22 -16 38 -16z m-111 -204 c21 -46 51 -170 51 -212 0 -17 -18 -49
-52 -90 -55 -69 -76 -78 -158 -72 -39 3 -45 6 -52 33 -15 56 -73 105 -123 105
-18 0 -56 -15 -88 -34 -50 -30 -55 -32 -45 -13 6 12 47 59 90 103 68 70 82 90
87 124 1 3 27 6 59 7 64 1 138 27 151 52 6 11 3 35 -9 70 l-18 53 44 -43 c24
-23 52 -61 63 -83z m-372 -123 c-9 -10 -39 -42 -67 -72 -27 -29 -64 -82 -81
-117 -28 -60 -51 -78 -72 -58 -10 10 40 134 65 161 23 25 146 103 162 103 5 0
2 -8 -7 -17z m74 -159 c27 -14 67 -79 56 -90 -2 -3 -64 -3 -136 -2 l-132 3 51
38 c47 36 103 66 123 67 4 0 22 -7 38 -16z"/>
<path d="M1420 7465 l0 -884 63 -3 62 -3 3 -57 3 -58 464 0 465 0 0 390 0 390
155 0 155 0 0 -1290 0 -1290 -285 0 -285 0 0 -520 0 -519 63 -3 62 -3 -3 -57
-2 -58 1125 0 1125 0 -2 512 -3 513 -62 3 -63 3 0 64 0 65 -210 0 -210 0 0
1290 0 1290 155 0 155 0 0 -325 0 -325 65 0 65 0 0 -65 0 -65 440 0 c408 0
465 -3 430 -25 -16 -10 -123 -172 -168 -255 -55 -102 -127 -289 -157 -408 -74
-293 -85 -643 -29 -922 51 -251 175 -538 317 -728 95 -128 321 -366 414 -437
106 -79 292 -173 428 -214 327 -100 722 -77 1014 60 317 148 560 420 671 749
27 80 49 180 52 240 2 25 5 -166 8 -425 l5 -470 63 -3 62 -3 0 -59 0 -60 835
0 835 0 0 510 0 510 -60 0 -60 0 0 70 0 70 -116 0 -115 0 3 383 c3 376 4 383
27 442 62 154 258 257 432 226 35 -6 89 -23 119 -38 50 -25 57 -33 75 -83 19
-53 20 -84 23 -1012 l3 -958 59 0 60 0 0 -60 0 -60 670 0 670 0 0 495 0 495
-65 0 -65 0 0 75 0 75 -99 0 -99 0 -5 518 c-4 473 -6 527 -26 631 -58 313
-181 546 -413 786 -134 139 -249 226 -393 296 -283 137 -590 139 -882 4 l-73
-34 0 669 0 669 -62 3 -63 3 -3 68 -3 67 -684 0 -685 0 0 -515 0 -515 60 0 60
0 0 -65 0 -65 105 0 105 0 0 -397 c1 -219 3 -648 6 -953 4 -305 3 -691 -1
-857 l-7 -303 -149 0 -149 0 0 -30 0 -30 -65 0 c-63 0 -65 1 -61 23 3 12 7 33
8 47 l3 25 -265 7 c-146 5 -364 7 -484 5 l-219 -2 -11 -40 c-9 -31 -22 -47
-60 -72 -132 -89 -341 -101 -492 -28 -62 30 -75 55 -82 158 l-5 77 885 0 885
0 6 188 c17 469 -38 773 -194 1085 -75 147 -143 238 -309 411 -263 272 -508
412 -812 461 -122 20 -349 19 -469 -1 -244 -41 -471 -155 -661 -334 l-88 -82
0 846 0 846 -70 0 -70 0 0 70 0 70 -1925 0 -1925 0 0 -885z m3820 5 l0 -850
-430 0 -430 0 0 385 0 385 -250 0 -250 0 0 -1380 0 -1380 275 0 275 0 0 -490
0 -490 -307 1 c-191 1 -293 4 -268 10 22 4 95 8 162 8 134 1 160 6 143 27 -7
7 -10 25 -8 40 l3 27 68 -47 c62 -42 72 -46 127 -46 50 0 60 3 60 18 0 34 -38
81 -75 91 -19 5 -64 30 -99 55 -57 40 -64 49 -69 86 -6 47 -25 78 -145 238
-81 108 -149 175 -215 208 -28 15 -29 18 -22 62 9 60 58 247 76 290 13 31 12
35 -5 47 -10 8 -43 20 -72 26 -30 7 -54 13 -54 13 0 1 9 19 20 41 25 48 25 52
0 136 -23 78 -20 76 -124 54 -71 -15 -100 -30 -90 -47 3 -5 -2 -16 -12 -24
-18 -13 -18 -15 -2 -27 14 -11 15 -20 7 -56 -5 -24 -7 -46 -4 -49 3 -3 -2 -13
-10 -22 -9 -10 -17 -30 -18 -46 -2 -24 2 -29 21 -29 35 -1 42 -21 41 -125 -1
-133 -13 -169 -69 -198 -58 -30 -87 -58 -111 -104 -22 -42 -28 -44 -69 -23
-53 27 -67 60 -73 175 -4 58 -13 134 -21 170 -12 56 -12 67 0 81 13 14 12 32
-7 135 -11 66 -27 134 -35 152 -13 32 -12 34 20 67 34 33 49 80 59 173 1 18 9
37 16 41 10 7 12 46 10 178 -4 189 -7 195 -69 214 -33 10 -44 9 -75 -7 -20
-11 -43 -31 -52 -45 -15 -24 -14 -28 21 -77 l37 -51 -78 25 c-43 13 -101 31
-130 39 l-51 16 5 77 c3 42 1 94 -5 115 -9 33 -9 37 8 37 52 0 35 85 -28 145
l-32 30 0 707 0 708 -181 2 -182 3 60 75 c215 271 542 438 893 457 280 15 662
-94 897 -256 251 -173 462 -418 568 -658 42 -96 44 -99 108 -138 36 -22 76
-50 89 -62 55 -52 53 -82 53 680 l0 702 -271 3 -271 2 -38 -105 c-26 -73 -42
-105 -51 -101 -7 3 -28 8 -48 11 -25 5 -36 13 -38 28 -2 17 -13 24 -47 31 -47
10 -46 6 -25 104 l7 32 -307 0 c-299 0 -306 0 -306 -20 0 -15 7 -20 27 -20 47
0 234 -70 388 -144 162 -79 325 -183 418 -266 l57 -52 0 110 c0 60 3 150 6
200 l7 92 207 0 207 0 6 -142 c4 -79 8 -224 9 -323 1 -139 3 -164 8 -110 9 88
12 527 4 578 l-7 37 -223 0 c-221 0 -223 0 -236 -22 -7 -14 -14 -84 -18 -182
l-5 -159 -57 47 c-122 99 -376 239 -553 305 l-80 30 202 1 202 0 -15 -50 c-8
-28 -13 -54 -10 -59 3 -5 27 -11 53 -15 37 -5 51 -11 58 -28 11 -24 82 -51
124 -46 20 3 29 17 58 101 l35 97 244 0 244 0 0 -659 0 -659 -76 51 c-54 36
-79 59 -87 81 -52 152 -195 363 -348 515 -237 236 -485 368 -826 441 -138 30
-359 37 -480 16 -324 -56 -603 -221 -799 -472 l-66 -84 -49 0 -49 0 0 -390 0
-390 -432 2 -433 3 0 845 c0 465 1 848 3 853 2 4 853 7 1893 7 l1889 0 0 -850z
m3523 438 c4 -205 10 -641 14 -968 l6 -595 -52 -19 -52 -19 6 -76 c4 -42 20
-206 36 -366 16 -159 29 -342 28 -405 l0 -115 -25 65 c-31 85 -48 116 -62 112
-7 -1 -12 8 -12 21 0 12 -6 32 -14 42 -8 11 -17 52 -21 90 -10 95 -19 115 -49
115 -16 0 -27 7 -31 19 -3 11 8 129 24 263 53 432 64 577 65 868 1 252 -1 284
-22 380 -31 139 -41 154 -99 147 -54 -6 -73 -24 -102 -97 -31 -80 -50 -180
-57 -307 l-7 -111 -48 51 -48 52 -1 138 0 137 -170 0 -170 0 0 475 0 475 428
0 429 0 6 -372z m72 -150 c-4 -288 -10 -613 -14 -723 -5 -182 -7 -158 -14 265
-4 256 -10 581 -14 723 l-6 257 28 0 28 0 -8 -522z m59 -105 c6 -563 -3 -1204
-19 -1388 -3 -33 -12 -166 -20 -295 -30 -474 -47 -685 -57 -700 -11 -18 -4
319 11 550 25 378 61 1608 61 2096 0 200 4 364 9 364 4 0 11 -282 15 -627z
m49 520 c25 -423 30 -686 17 -962 -20 -444 -27 -452 -28 -35 -1 209 -5 543 -9
742 -4 242 -3 362 4 362 6 0 13 -46 16 -107z m57 94 c0 -7 7 -93 15 -192 35
-414 36 -784 5 -1190 -6 -77 -20 -259 -30 -405 -11 -146 -27 -345 -35 -443 -8
-98 -15 -189 -15 -203 0 -15 -6 -24 -15 -24 -12 0 -15 -17 -16 -92 0 -125 -24
-457 -33 -465 -4 -4 -5 26 -1 67 3 41 15 264 26 495 23 490 32 630 59 895 49
481 54 1007 14 1493 -5 67 -4 77 10 77 9 0 16 -6 16 -13z m208 -374 l-3 -388
-50 -5 c-27 -3 -55 -9 -61 -13 -8 -5 -14 38 -18 151 -8 181 -33 537 -42 600
l-6 42 91 0 91 0 -2 -387z m-3836 -558 l3 -835 -427 0 -428 0 0 40 0 40 375 0
375 0 0 795 0 795 50 0 50 0 2 -835z m3968 147 l0 -668 -50 -49 -50 -49 0 717
0 717 50 0 50 0 0 -668z m-132 -144 c2 -120 1 -128 -16 -128 -17 0 -20 -13
-31 -112 -62 -612 -140 -1302 -171 -1518 -11 -74 -27 -233 -37 -353 -15 -199
-15 -219 -1 -234 15 -14 19 -14 46 6 29 20 52 66 70 140 l8 35 22 -37 c32 -56
72 -47 92 20 5 17 9 -84 9 -254 l1 -283 175 0 175 0 0 -485 0 -485 -221 0
-222 0 6 38 c8 52 64 545 76 667 5 55 6 198 3 320 l-7 220 -50 -3 c-53 -4 -65
-6 -218 -46 -54 -13 -105 -22 -112 -20 -37 15 -38 -95 -4 -416 5 -52 12 -245
16 -427 l6 -333 -40 0 -40 0 -7 478 c-8 521 -17 633 -66 818 -35 132 -55 181
-109 266 -22 35 -52 89 -65 119 -54 118 -77 369 -81 889 -3 334 -5 377 -27
505 -22 125 -24 154 -17 275 5 74 14 167 20 205 15 93 65 225 86 225 13 0 14
-8 9 -41 -14 -85 -25 -304 -36 -664 -13 -415 -3 -692 29 -830 11 -44 22 -105
26 -135 12 -102 24 -131 48 -128 15 2 22 -3 25 -17 10 -64 44 -155 57 -155 8
0 15 5 15 10 0 28 18 4 33 -45 9 -30 33 -89 52 -130 31 -64 40 -75 61 -75 16
0 28 8 34 23 5 12 9 17 9 10 1 -16 30 -43 46 -43 8 0 18 8 24 18 8 16 48 353
71 607 5 61 19 254 30 430 11 176 27 401 35 500 8 99 20 294 27 433 l12 252
30 10 c17 5 45 8 61 7 l30 -2 3 -127z m-639 -39 c11 -59 23 -160 27 -225 9
-174 -17 -560 -66 -958 -11 -88 -21 -167 -21 -175 -1 -9 -5 4 -10 29 -26 150
-19 1004 12 1328 16 170 25 170 58 1z m-4221 14 l3 -43 -175 0 -176 0 0 -1305
0 -1305 -40 0 -40 0 0 1350 0 1350 213 -2 212 -3 3 -42z m-1558 -3 l0 -40
-175 0 -175 0 0 -390 0 -390 -430 0 -430 0 0 40 0 40 383 2 382 3 3 388 2 387
220 0 220 0 0 -40z m5410 -65 l0 -45 -85 0 -85 0 0 45 0 45 85 0 85 0 0 -45z
m114 -328 c29 -60 67 -362 67 -534 -1 -86 -3 -158 -5 -160 -7 -7 -75 112 -106
185 l-30 71 0 262 0 263 29 -28 c16 -15 36 -42 45 -59z m873 -139 c-9 -270
-63 -878 -127 -1418 -27 -223 -39 -287 -61 -313 -18 -22 -18 -22 -19 33 0 82
27 361 54 560 14 96 30 227 36 290 6 63 22 203 36 310 23 186 74 675 74 713 0
9 3 17 7 17 3 0 3 -87 0 -192z m659 145 c-3 -10 -17 -72 -30 -138 -14 -66 -56
-264 -94 -440 -38 -176 -75 -348 -82 -382 -12 -59 -15 -63 -40 -63 -28 0 -28
0 -18 48 9 43 201 919 213 970 4 16 13 22 31 22 20 0 24 -4 20 -17z m131 5
c-4 -12 -131 -575 -205 -908 l-27 -125 -33 2 c-19 0 -36 3 -39 6 -6 7 41 245
117 587 32 146 66 301 75 345 9 44 18 86 20 93 3 7 22 12 51 12 33 0 45 -4 41
-12z m-217 -2 c0 -2 -36 -165 -81 -363 -44 -197 -95 -430 -113 -518 l-34 -159
-64 -26 c-36 -15 -78 -36 -95 -48 -31 -22 -100 -95 -120 -128 -12 -19 -12 -19
-12 1 -1 11 8 90 19 175 11 85 38 322 60 525 22 204 43 380 45 392 7 28 133
91 255 127 77 23 140 32 140 22z m374 -21 c246 -71 492 -246 618 -440 59 -89
168 -299 168 -321 0 -7 -26 -27 -57 -44 -92 -52 -169 -115 -305 -249 -87 -85
-128 -132 -128 -147 0 -12 -20 -59 -44 -105 -52 -98 -127 -309 -163 -459 -21
-88 -26 -138 -30 -306 -6 -220 3 -325 42 -519 39 -191 109 -406 212 -652 4
-10 -38 -13 -191 -13 l-196 0 0 933 c0 1010 -1 1021 -54 1112 -32 54 -109 124
-172 156 -27 13 -51 25 -53 26 -4 2 139 662 224 1031 7 28 22 28 129 -3z
m-3574 5 c84 -10 290 -60 290 -70 0 -3 -26 -14 -57 -24 -192 -60 -682 -278
-903 -403 -190 -107 -479 -301 -650 -436 -80 -63 -146 -114 -148 -112 -4 4 64
178 102 257 48 102 157 265 242 362 278 320 699 479 1124 426z m403 -114 c30
-14 58 -29 61 -34 3 -5 -41 -21 -97 -36 -185 -51 -540 -172 -677 -231 -371
-158 -694 -343 -1020 -583 -144 -106 -107 -66 60 63 260 202 585 402 886 546
204 97 683 295 725 298 4 1 31 -10 62 -23z m195 -118 c79 -54 279 -245 302
-287 11 -22 11 -23 -6 -17 -11 4 -55 10 -99 13 -97 7 -185 -13 -264 -60 -66
-39 -91 -71 -98 -125 -3 -23 -10 -42 -15 -42 -6 0 -83 24 -172 54 -168 57
-239 73 -281 62 -21 -5 -25 -12 -25 -45 0 -22 9 -60 20 -86 l20 -47 -48 7
c-58 8 -172 -15 -233 -46 -57 -29 -146 -121 -182 -187 -16 -29 -44 -98 -63
-155 -30 -90 -33 -103 -19 -113 19 -14 236 -28 291 -19 33 5 36 4 20 -6 -13
-8 -67 -12 -160 -12 -162 0 -300 25 -525 92 -73 22 -158 43 -189 46 -74 9
-171 -12 -301 -63 -110 -44 -108 -45 -90 36 9 46 16 54 102 123 394 318 869
581 1372 760 144 51 526 167 553 168 8 1 48 -23 90 -51z m2127 -294 c-20 -176
-49 -434 -66 -574 -17 -140 -38 -347 -47 -459 -18 -207 -29 -246 -53 -184 -11
28 -2 128 67 738 36 320 120 841 131 809 2 -7 -12 -155 -32 -330z m-996 -88
c22 -40 51 -86 64 -102 23 -28 25 -38 31 -224 9 -244 23 -433 42 -530 15 -81
61 -187 118 -271 39 -58 94 -214 120 -339 26 -130 35 -282 40 -737 l6 -443
-385 0 -385 0 0 486 0 486 148 -3 147 -4 3 878 c1 482 4 877 6 877 2 0 22 -33
45 -74z m-826 38 c35 -12 54 -26 76 -57 l28 -42 -51 -1 c-87 -1 -182 -68 -226
-159 -42 -89 -73 -234 -74 -356 -1 -108 -2 -115 -16 -94 -8 12 -38 40 -65 62
-67 53 -124 118 -175 201 l-41 67 57 -58 c31 -32 62 -56 68 -54 17 6 19 63 3
130 -22 91 -30 229 -16 261 20 44 110 92 224 120 34 8 158 -4 208 -20z m3471
-88 c44 -74 108 -235 135 -341 46 -182 51 -264 51 -779 l0 -486 -40 0 -40 0
-1 318 c-1 538 -15 902 -39 1014 -21 102 -68 245 -102 313 -28 55 -7 33 36
-39z m-2149 -203 c-4 -148 -11 -274 -15 -281 -3 -7 -12 51 -19 130 -6 79 -16
181 -22 228 -20 176 -21 160 14 175 18 8 36 14 40 15 5 0 5 -120 2 -267z
m-1980 139 c94 -31 176 -63 183 -71 6 -8 12 -33 12 -55 0 -23 7 -66 15 -96 8
-30 15 -59 15 -64 0 -5 -40 31 -88 80 -48 49 -109 100 -135 114 l-48 25 -24
-27 c-12 -15 -25 -32 -27 -38 -2 -7 -24 -2 -63 13 -52 21 -63 30 -83 69 -13
25 -26 62 -29 83 l-6 37 54 -7 c30 -4 131 -32 224 -63z m792 -9 c20 -29 62
-123 83 -183 11 -32 8 -45 -29 -149 -23 -63 -60 -182 -82 -265 -22 -82 -42
-153 -45 -156 -9 -8 -74 73 -74 92 0 10 17 41 39 69 21 28 46 77 56 109 17 55
17 62 1 131 -22 94 -50 164 -66 164 -7 0 -21 -11 -30 -25 -15 -21 -16 -38 -10
-115 8 -97 5 -116 -14 -109 -23 9 -43 59 -50 123 -4 35 -19 95 -32 133 l-26
70 29 41 c43 63 105 97 174 97 52 0 60 -3 76 -27z m134 -150 c89 -184 149
-399 169 -614 6 -63 10 -220 8 -349 l-3 -235 -878 -3 -878 -2 -10 -28 c-6 -15
-8 -54 -5 -90 3 -34 1 -60 -3 -58 -39 25 -80 228 -50 247 8 5 389 9 870 9
l857 0 7 23 c3 12 9 119 12 238 9 369 -34 651 -138 900 -41 101 -43 107 -24
84 9 -11 39 -66 66 -122z m3199 64 c0 -2 9 -43 19 -92 30 -140 42 -277 35
-403 l-7 -113 -31 6 c-145 30 -476 184 -476 221 0 17 184 201 265 265 101 80
195 136 195 116z m-4301 -50 c59 -25 137 -74 129 -83 -2 -2 -28 3 -58 11 -162
43 -329 -6 -440 -128 -34 -37 -87 -140 -96 -186 l-6 -31 -69 0 c-38 0 -69 1
-69 3 2 22 75 208 95 243 58 98 138 164 234 191 74 21 204 11 280 -20z m224
-71 c35 -45 78 -103 97 -131 46 -67 113 -138 171 -180 56 -42 71 -74 67 -145
-2 -43 -8 -56 -28 -71 -22 -17 -32 -18 -87 -8 -53 9 -65 16 -92 49 -17 21 -57
51 -90 68 l-60 30 36 7 36 6 -6 67 c-7 82 -44 189 -104 300 -26 48 -42 89 -39
98 9 22 23 9 99 -90z m487 -93 c15 -101 18 -109 46 -142 30 -36 54 -39 79 -11
15 17 17 33 13 115 -3 52 -4 95 -2 95 9 0 44 -138 44 -175 0 -52 -30 -126 -70
-172 -44 -50 -47 -76 -14 -124 27 -39 69 -79 83 -79 26 0 44 39 80 175 47 178
106 347 115 325 16 -41 47 -184 63 -288 18 -126 25 -553 10 -625 l-8 -38 -187
2 c-103 0 -190 3 -193 5 -4 2 9 21 29 41 143 152 68 317 -165 368 l-32 6 54
54 c30 29 55 57 55 63 0 5 -14 24 -31 41 -17 18 -37 48 -45 66 -28 67 -11 305
28 403 l10 27 14 -32 c7 -17 18 -62 24 -100z m-678 66 c80 -17 125 -44 147
-87 20 -39 45 -128 54 -194 l6 -38 -340 0 -340 0 6 23 c4 12 20 49 36 83 81
165 253 250 431 213z m3060 -90 c66 -14 110 -36 176 -89 56 -44 69 -69 25 -47
-85 43 -231 47 -334 8 -125 -47 -231 -157 -259 -268 -8 -31 -14 -181 -17 -420
l-5 -373 -34 0 -35 0 3 463 c3 450 4 463 25 509 74 162 272 256 455 217z
m-4112 -221 c210 -65 346 -90 500 -91 74 -1 163 2 198 6 42 5 62 5 62 -3 0
-31 -59 -158 -86 -185 -47 -48 -128 -70 -254 -70 -95 0 -115 4 -215 38 -60 21
-142 56 -181 78 -39 21 -84 39 -100 39 -35 0 -89 -24 -164 -72 -30 -19 -108
-63 -173 -98 -116 -61 -120 -62 -158 -51 -22 7 -43 19 -46 26 -5 15 12 218 24
283 6 37 19 45 178 104 152 56 225 55 415 -4z m4895 6 l44 -25 -23 -38 c-53
-83 -130 -250 -166 -360 -70 -209 -99 -406 -101 -681 -1 -164 -10 -150 -30 48
-16 163 -7 396 21 527 12 55 41 160 66 234 43 129 126 321 139 321 4 0 26 -12
50 -26z m-7281 -10 c22 -21 24 -314 2 -314 -10 0 -15 21 -18 75 -4 61 -11 84
-35 122 -64 103 -61 92 -34 114 28 23 64 25 85 3z m3416 -49 c0 -21 -40 -78
-85 -120 -44 -42 -53 -57 -59 -96 -15 -102 22 -132 105 -86 61 35 78 34 119
-8 42 -44 88 -59 157 -52 46 5 57 2 81 -18 26 -22 27 -27 30 -139 l4 -116
-163 0 -164 0 -24 35 c-13 19 -31 35 -41 35 -9 0 -38 -16 -63 -35 l-46 -35
-172 0 -173 0 -37 36 c-49 48 -92 57 -209 42 -52 -7 -99 -13 -103 -13 -10 0
-57 133 -57 163 0 13 -5 32 -11 43 -10 19 -19 20 -168 17 -146 -3 -161 -1
-180 17 -23 20 -22 55 1 82 21 26 117 73 148 73 19 0 62 -16 104 -39 106 -58
299 -114 395 -114 86 0 185 23 245 56 33 18 48 37 78 97 21 42 44 99 50 128
l13 52 112 0 c62 0 113 -2 113 -5z m144 -19 c99 -38 166 -84 166 -117 0 -9 17
-32 39 -52 40 -36 105 -57 176 -57 46 0 184 -44 225 -72 53 -36 73 -71 72
-123 0 -56 -36 -119 -94 -169 l-42 -36 -151 2 -150 3 -5 120 c-7 168 -33 203
-140 189 -62 -8 -108 8 -150 51 -41 42 -69 44 -135 9 -63 -33 -79 -27 -70 29
10 68 14 73 54 100 24 16 47 44 61 74 41 85 44 86 144 49z m3850 7 l35 -16
-20 -28 c-30 -42 -145 -286 -168 -356 -109 -330 -129 -672 -61 -1036 22 -113
112 -408 136 -442 21 -30 17 -35 -24 -35 -33 0 -41 4 -51 28 -35 76 -112 277
-136 356 l-27 89 10 371 c12 414 24 505 97 717 32 92 159 369 170 369 2 0 20
-7 39 -17z m-7529 -100 c41 -23 62 -57 68 -113 4 -31 15 -66 28 -83 18 -25 19
-33 9 -80 -13 -60 -32 -93 -58 -101 -34 -11 -43 -49 -21 -93 15 -31 62 -234
56 -239 -1 -1 -36 4 -77 12 -41 7 -89 13 -105 14 l-31 0 -23 -124 c-12 -68
-28 -131 -34 -139 -7 -8 -25 -18 -42 -22 l-30 -7 21 24 c12 13 27 33 33 45 22
44 51 192 61 314 10 127 35 297 51 336 5 15 23 26 51 34 61 16 62 18 26 43
-31 21 -33 25 -33 85 l-1 63 -69 32 c-39 18 -78 42 -89 54 -17 19 -10 18 85
-12 57 -18 113 -37 124 -43z m7699 -97 c-63 -131 -134 -339 -166 -486 -20 -94
-22 -132 -23 -360 0 -250 1 -258 33 -407 30 -142 32 -154 17 -177 -15 -22 -14
-25 8 -52 13 -16 36 -65 51 -109 15 -44 32 -84 37 -89 24 -26 8 -36 -56 -36
l-65 0 -15 36 c-8 21 -22 64 -30 98 -9 34 -23 78 -32 98 -11 27 -13 41 -5 50
7 9 2 38 -18 99 -40 121 -54 258 -55 514 0 166 5 249 19 340 30 195 110 435
190 572 l36 61 64 -20 63 -21 -53 -111z m-7846 73 l54 -26 2 -54 c2 -30 6 -61
9 -69 5 -10 -2 -20 -21 -31 -27 -15 -30 -24 -46 -125 -9 -60 -24 -177 -32
-261 -19 -196 -44 -297 -85 -339 -24 -24 -29 -37 -24 -54 6 -20 12 -22 57 -18
27 3 57 13 66 21 9 9 24 54 33 99 9 46 19 76 22 68 3 -8 10 -121 17 -250 7
-129 13 -246 13 -260 2 -21 -3 -25 -35 -30 -46 -8 -64 -23 -89 -72 -15 -30
-25 -38 -46 -38 -91 0 -203 -146 -203 -266 0 -56 8 -64 59 -64 25 0 53 -5 61
-10 10 -7 -74 -9 -250 -7 l-265 2 0 485 0 485 285 2 285 1 6 409 c3 224 9 421
14 436 7 28 7 28 34 10 14 -10 50 -30 79 -44z m7990 12 c11 -7 9 -23 -11 -88
-60 -188 -83 -377 -92 -733 -6 -246 -5 -259 20 -379 28 -137 31 -185 14 -242
-10 -33 -9 -42 10 -73 16 -25 25 -63 32 -127 5 -50 12 -95 15 -100 3 -5 26
-20 52 -34 l47 -25 -95 3 -94 2 -28 87 c-31 98 -101 437 -117 568 -6 46 -11
113 -11 147 l0 62 36 -24 c78 -53 93 -19 28 64 -26 34 -51 61 -57 61 -22 0 23
281 73 450 43 142 142 390 157 390 4 0 14 -4 21 -9z m-358 -134 c-41 -91 -95
-274 -114 -387 -34 -203 -40 -321 -27 -518 14 -221 24 -288 55 -386 18 -58 21
-76 11 -89 -10 -14 -16 1 -38 91 -41 167 -59 326 -59 532 0 284 50 514 164
763 17 37 33 66 35 64 2 -2 -10 -33 -27 -70z m370 -18 c-5 -24 -19 -147 -31
-274 -19 -200 -20 -244 -10 -335 14 -128 17 -234 7 -320 -7 -55 -3 -85 23
-195 18 -71 36 -182 41 -245 10 -126 19 -164 49 -216 24 -40 20 -41 -34 -11
-40 23 -40 23 -47 100 -4 42 -16 97 -26 121 -16 36 -19 59 -15 127 4 65 0 109
-18 194 -22 102 -23 128 -21 370 3 240 15 399 43 545 17 92 41 191 46 187 2
-2 -1 -24 -7 -48z m-5630 -27 c0 -64 71 -86 245 -76 l122 7 8 -49 c4 -27 13
-60 20 -74 7 -14 16 -39 19 -56 6 -28 4 -31 -29 -41 -33 -11 -41 -9 -83 18
-85 54 -141 60 -314 32 -138 -22 -146 -18 -184 77 -27 70 -27 72 -9 83 108 64
182 105 193 106 7 1 12 -11 12 -27z m5723 -660 c45 -3 47 -4 47 -33 0 -16 16
-104 36 -195 33 -148 35 -170 24 -203 -11 -35 -11 -40 13 -63 33 -33 43 -74
63 -243 14 -128 18 -143 45 -177 16 -20 29 -39 29 -42 0 -3 -42 -6 -94 -6
l-94 0 -27 36 c-45 59 -65 127 -72 238 -3 59 -18 156 -35 231 -18 76 -30 153
-29 185 5 167 2 294 -8 362 -9 58 -9 106 -1 195 6 65 15 168 20 228 18 221 25
181 30 -165 l5 -345 48 -3z m-5952 487 c46 -118 56 -122 264 -92 136 19 187
12 241 -33 l29 -24 -40 -32 c-22 -18 -66 -58 -99 -88 l-58 -55 -112 0 c-144 1
-263 13 -280 30 -14 15 -42 176 -52 307 l-6 87 42 -13 c40 -12 43 -16 71 -87z
m5654 40 c-91 -258 -122 -628 -76 -909 27 -164 76 -399 100 -479 11 -35 16
-60 12 -55 -5 5 -21 47 -36 94 -15 47 -36 92 -46 101 -15 14 -17 21 -7 47 10
25 7 53 -15 158 -36 176 -47 275 -47 434 0 147 18 292 50 422 25 101 71 241
76 235 2 -2 -3 -24 -11 -48z m-7044 -156 c23 -58 23 -100 -1 -138 -18 -29 -28
-35 -49 -33 -26 3 -26 4 -26 83 l0 80 -35 6 c-33 5 -33 6 -10 12 92 23 109 22
121 -10z m2345 -14 c36 -22 44 -39 19 -39 -18 0 -34 -29 -38 -69 -6 -56 -14
-58 -157 -53 -195 7 -202 1 -220 -171 -7 -73 -25 -143 -69 -280 -71 -218 -76
-222 -145 -127 -72 98 -108 179 -113 257 -5 85 10 115 124 247 129 148 206
202 328 230 146 33 224 34 271 5z m3102 -351 c3 -229 1 -261 -38 -593 -23
-192 -43 -356 -45 -362 -3 -8 -21 -13 -43 -13 -47 0 -45 -7 -63 193 -10 117
-14 137 -28 135 -16 -3 -25 -92 -30 -275 -1 -49 -3 -53 -26 -53 -24 0 -25 3
-25 63 -1 97 -19 635 -24 702 -3 33 -3 52 0 43 3 -10 14 -18 25 -18 17 0 19 7
19 63 0 34 -9 111 -20 172 -10 60 -17 112 -15 114 5 4 204 56 245 64 71 13 65
34 68 -235z m-5379 138 c31 -8 45 -16 43 -26 -1 -8 -17 -73 -35 -145 -19 -71
-36 -149 -40 -173 l-5 -43 71 -48 c40 -27 86 -64 103 -82 45 -48 126 -177 119
-189 -10 -16 -171 -12 -213 6 -69 28 -129 104 -152 192 -12 46 -32 61 -54 43
-10 -8 -12 -31 -9 -84 6 -89 -9 -75 -33 32 l-17 74 57 55 c31 30 53 59 49 65
-3 5 -5 53 -4 106 1 87 -6 152 -25 220 -7 23 -6 23 46 16 29 -4 74 -12 99 -19z
m2171 -58 c-43 -79 -52 -140 -27 -188 12 -23 11 -29 -17 -65 -17 -22 -77 -88
-134 -148 -83 -86 -111 -123 -143 -190 -47 -98 -51 -150 -9 -155 22 -2 196 88
293 152 35 24 34 15 -4 -41 -38 -54 -145 -127 -238 -159 -36 -13 -73 -24 -82
-24 -28 0 -309 322 -309 353 0 4 26 7 59 7 56 0 59 -1 85 -38 32 -47 63 -65
102 -60 28 3 31 8 86 176 62 187 88 295 88 367 0 84 2 85 155 85 l134 0 -39
-72z m-705 46 c91 -4 165 -9 165 -11 0 -3 -17 -25 -39 -51 -71 -85 -88 -140
-72 -227 6 -31 24 -84 41 -117 17 -33 29 -63 26 -65 -3 -3 -31 -2 -64 2 l-59
7 -46 96 c-60 126 -72 157 -113 276 -39 116 -38 110 -19 102 9 -3 90 -9 180
-12z m808 -22 c10 -50 69 -125 132 -167 94 -63 150 -79 295 -82 69 -1 133 -2
143 -3 31 0 18 -16 -50 -63 -81 -55 -134 -69 -257 -65 l-89 3 -8 -28 c-4 -15
-3 -42 2 -61 29 -105 131 -145 294 -115 53 10 63 9 106 -11 l47 -22 73 49 c94
63 146 83 212 83 70 0 86 -10 64 -43 -9 -14 -29 -34 -45 -46 -29 -20 -29 -20
-47 -1 -26 29 -59 25 -125 -16 -41 -25 -73 -37 -113 -41 -34 -3 -62 -12 -72
-23 -21 -23 -101 -189 -169 -352 -41 -97 -63 -138 -77 -141 -10 -3 -19 -3 -19
-1 0 7 129 283 180 384 27 55 50 106 50 114 0 11 -19 14 -87 13 -90 -1 -181
19 -235 51 -15 9 -30 14 -32 11 -3 -2 -18 -33 -33 -68 l-28 -63 0 61 c0 51 -4
64 -26 88 -51 55 -60 100 -37 186 21 79 -5 115 -95 132 -86 16 -86 128 0 243
27 36 38 35 46 -6z m-2907 -3 c22 -18 54 -183 55 -276 0 -54 6 -97 15 -115 16
-31 66 -72 108 -87 19 -8 26 -16 22 -27 -3 -9 -6 -24 -6 -35 0 -30 -18 -22
-25 11 -7 31 -39 58 -49 41 -4 -5 1 -37 10 -71 16 -64 12 -108 -13 -146 -32
-50 -191 -88 -272 -67 l-35 9 56 61 c37 40 55 68 53 80 -3 10 -11 126 -20 258
-8 132 -18 274 -21 316 l-6 76 58 -9 c32 -5 64 -14 70 -19z m4233 -86 c-34
-91 -99 -192 -171 -268 -102 -108 -121 -117 -202 -98 -34 8 -76 11 -95 8 -40
-8 -112 -43 -188 -91 -46 -29 -56 -32 -78 -22 -14 6 -25 15 -25 20 0 16 32 72
72 124 43 57 133 256 143 316 l7 38 274 0 274 0 -11 -27z m371 23 c0 -2 -7
-41 -16 -86 -30 -158 -110 -347 -206 -487 -62 -90 -220 -243 -318 -310 -66
-44 -180 -108 -180 -101 0 2 5 19 10 38 6 19 11 71 11 115 0 74 -3 86 -40 160
-23 44 -41 86 -41 94 0 7 20 36 45 63 25 28 45 54 45 59 0 5 19 18 43 30 53
27 169 145 222 224 33 51 63 113 88 188 6 15 23 17 172 17 91 0 165 -2 165 -4z
m3442 -257 c15 -112 36 -230 47 -262 11 -32 27 -106 36 -165 9 -59 21 -129 26
-157 6 -27 12 -63 15 -80 l5 -30 -19 22 c-15 16 -22 50 -31 135 -16 144 -38
242 -60 270 -13 15 -17 33 -14 62 3 23 -3 75 -12 116 -60 279 -63 308 -33 298
8 -3 22 -77 40 -209z m127 -131 c-1 -316 -2 -337 -14 -266 -7 42 -23 107 -35
144 -18 56 -70 387 -70 447 0 14 10 17 60 17 l60 0 -1 -342z m-3459 270 c0
-51 -23 -158 -51 -242 -107 -322 -324 -568 -634 -723 -227 -113 -526 -158
-795 -119 -188 28 -416 113 -566 213 -30 20 -54 37 -54 38 0 1 39 -17 88 -42
421 -211 986 -181 1369 73 109 72 247 203 325 308 76 102 160 274 193 396 15
52 28 101 30 108 3 7 22 12 50 12 40 0 45 -2 45 -22z m-3310 -528 l0 -480
-1085 0 -1085 0 0 45 0 45 1040 0 1040 0 0 435 0 435 45 0 45 0 0 -480z m5120
-5 l0 -475 -802 2 -803 3 0 40 0 40 758 3 757 2 0 430 0 430 45 0 45 0 0 -475z
m-3618 435 c4 0 12 -9 18 -20 8 -15 6 -36 -5 -80 -20 -76 -13 -114 31 -176 48
-68 47 -111 -5 -167 -22 -23 -42 -39 -46 -35 -11 11 -25 81 -25 130 0 43 -3
49 -31 64 -30 15 -32 15 -83 -17 -64 -41 -245 -143 -269 -152 -16 -6 -18 -3
-12 26 19 83 81 173 234 334 l105 110 40 -8 c23 -5 44 -8 48 -9z m5408 -445
l0 -465 -640 0 -640 0 0 45 0 45 590 0 590 0 0 420 0 420 50 0 50 0 0 -465z
m-4730 450 c0 -12 -35 -73 -82 -141 -26 -39 -48 -76 -48 -82 0 -34 -144 -70
-227 -57 -65 9 -123 66 -123 119 l0 37 88 -7 c111 -8 156 4 252 66 87 56 140
81 140 65z m-3010 -356 c37 -47 103 -79 161 -79 24 0 49 -4 54 -8 19 -13 13
-40 -10 -46 -32 -8 -41 -36 -15 -43 21 -6 21 -6 -1 -29 -12 -13 -19 -27 -16
-31 4 -3 -7 -15 -24 -25 -17 -10 -29 -24 -26 -31 5 -16 58 -20 113 -9 24 5 44
6 44 2 0 -3 -40 -16 -89 -27 l-89 -21 -113 30 c-72 18 -132 28 -164 26 -48 -3
-50 -4 -53 -33 -4 -42 32 -73 110 -96 l63 -18 -393 0 c-260 -1 -391 2 -387 9
3 6 52 10 110 10 116 0 155 10 155 39 0 52 -31 72 -173 116 l-88 27 24 31 24
32 111 0 c86 0 108 -3 100 -12 -19 -23 1 -60 49 -91 79 -51 155 -82 200 -82
38 0 43 3 49 26 11 45 -18 88 -88 129 -35 21 -74 44 -86 52 l-24 15 22 15 c12
9 28 30 36 47 l13 31 1 -33 c0 -18 7 -46 15 -61 18 -37 88 -71 146 -72 24 -1
63 -8 87 -15 54 -18 233 -19 250 -2 7 7 12 27 12 46 0 46 -40 84 -119 112 -67
25 -97 58 -73 82 7 7 12 26 12 43 l1 30 19 -25 c11 -14 34 -41 50 -61z m3182
34 c27 -24 23 -72 -9 -105 -27 -28 -27 -30 -11 -56 72 -115 83 -182 48 -275
-18 -49 -28 -61 -57 -74 -20 -8 -39 -11 -43 -6 -6 7 -45 173 -75 323 -4 19
-18 53 -31 76 -13 22 -24 43 -24 47 0 3 17 11 38 18 20 6 60 25 87 40 59 34
54 33 77 12z m-582 -44 c40 -13 95 -22 142 -23 43 0 78 -2 78 -4 0 -1 -40 -82
-88 -180 -49 -97 -101 -208 -117 -245 -28 -66 -29 -68 -59 -62 -75 15 -70 -2
-63 192 5 153 4 175 -10 180 -9 4 -21 -1 -28 -10 -14 -19 -31 -123 -41 -244
-4 -54 -11 -83 -19 -83 -55 0 -306 114 -400 182 l-60 43 50 3 c103 5 292 34
352 53 72 24 100 52 152 153 18 37 36 66 40 66 3 0 35 -10 71 -21z m-329 -31
c0 -60 20 -110 47 -124 22 -11 21 -12 -25 -23 -70 -15 -271 -41 -318 -40 l-40
0 36 14 c103 38 199 103 250 171 18 24 36 44 41 44 4 0 8 -19 9 -42z m-3014
-17 c-19 -22 -41 -50 -48 -63 -7 -12 -25 -39 -41 -59 -38 -47 -46 -80 -37
-148 9 -61 3 -71 -42 -71 -23 0 -28 5 -33 34 -9 45 13 96 65 159 22 26 57 75
78 110 33 54 77 94 90 82 2 -3 -12 -22 -32 -44z m3711 -33 c28 -60 110 -393
98 -405 -18 -18 -366 -45 -366 -29 0 11 134 324 166 388 30 61 60 108 69 108
1 0 16 -28 33 -62z m-2580 -17 c12 -21 22 -52 22 -67 0 -43 11 -74 25 -74 6 0
37 -18 68 -40 30 -22 77 -50 104 -62 l48 -22 -36 -4 c-30 -2 -50 6 -108 43
-39 25 -71 50 -71 54 0 19 -57 44 -128 56 -43 7 -67 13 -54 14 13 0 46 11 73
22 55 24 54 39 -7 59 l-34 11 27 25 c35 33 46 31 71 -15z m2878 -13 c26 -47
29 -63 29 -138 0 -89 -23 -173 -50 -184 -11 -4 -12 0 -4 22 36 93 28 186 -22
266 -28 46 -29 50 -13 67 9 11 20 19 24 19 4 0 20 -24 36 -52z m-3682 -89 c91
-54 106 -67 106 -96 0 -15 -6 -23 -17 -23 -22 0 -123 47 -182 84 l-43 28 23
24 c12 13 27 24 33 24 5 0 42 -19 80 -41z"/>
<path d="M1552 7503 c3 -798 2 -785 75 -573 145 422 411 769 761 994 144 93
430 215 565 241 15 3 27 12 27 20 0 13 -43 15 -309 15 -171 0 -312 -4 -315 -8
-3 -5 1 -30 9 -57 8 -26 15 -51 15 -55 0 -4 -20 -11 -45 -14 -34 -6 -45 -12
-45 -25 0 -26 -22 -41 -65 -44 l-38 -2 -35 103 -35 102 -283 0 -284 0 2 -697z
m579 554 l35 -102 39 2 c64 4 104 22 111 49 5 18 15 25 43 30 70 11 68 8 45
98 l-6 26 203 0 204 -1 -70 -25 c-175 -61 -390 -185 -552 -317 l-81 -66 -4
184 c-2 113 -7 188 -14 195 -7 7 -86 9 -235 8 l-224 -3 -3 -247 -2 -247 132
-3 c73 -2 139 -1 146 1 8 2 12 26 12 77 l0 74 -89 0 -88 0 -6 91 c-4 50 -4 95
-1 100 3 5 66 9 140 9 l134 0 0 -177 0 -178 -66 -80 c-137 -167 -250 -365
-313 -548 -18 -54 -35 -96 -38 -94 -2 3 -1 284 3 626 l7 621 251 0 251 0 36
-103z m-71 -171 c0 -118 -4 -217 -9 -220 -5 -3 -12 78 -16 179 l-7 185 -167
-2 -166 -3 0 -130 0 -130 90 -5 90 -5 3 -42 3 -43 -115 0 -116 0 0 215 0 215
205 0 205 0 0 -214z"/>
<path d="M4676 8022 c-3 -4 -8 -87 -12 -184 l-7 -177 70 -78 c87 -96 165 -205
234 -324 29 -51 56 -86 61 -81 4 4 7 116 6 248 l-3 239 -103 3 -103 3 3 42 3
42 92 3 91 3 7 102 c4 56 5 116 3 132 l-3 30 -167 3 c-91 1 -169 -1 -172 -6z
m304 -132 l0 -100 -95 0 -95 0 0 -75 0 -74 34 -6 c19 -4 63 -5 99 -3 l66 3 3
-178 c2 -97 0 -177 -3 -177 -3 0 -11 12 -18 28 -24 51 -99 157 -185 259 l-86
102 0 161 0 160 140 0 140 0 0 -100z"/>
<path d="M3455 7798 c-118 -7 -216 -27 -341 -68 -110 -36 -178 -65 -192 -83
-10 -12 -32 -790 -32 -1122 l0 -80 341 -325 c188 -179 393 -374 455 -433 74
-70 116 -104 119 -95 10 26 0 1411 -10 1414 -11 4 -677 -487 -682 -502 -4 -11
503 -497 524 -502 11 -3 13 54 13 322 0 179 -4 327 -9 330 -13 8 -231 -155
-231 -174 0 -4 31 -44 69 -88 61 -71 90 -117 79 -127 -4 -3 -242 213 -245 223
-2 6 348 272 368 280 11 4 11 -144 2 -575 l-6 -322 -156 153 c-86 84 -231 224
-323 312 -93 87 -168 164 -168 171 0 6 5 15 10 18 6 3 10 14 10 24 0 10 67 66
180 150 163 120 180 135 180 162 0 16 -6 32 -14 35 -19 7 -306 -11 -328 -20
-17 -8 -18 12 -18 337 0 190 4 348 8 351 17 10 245 66 329 80 48 9 130 18 181
22 l92 7 0 -242 0 -241 -180 0 -180 0 0 95 0 95 70 0 70 0 0 -76 0 -75 53 3
52 3 0 150 0 150 -181 3 -182 2 -7 -192 c-4 -106 -5 -213 -3 -237 l3 -45 310
3 c219 2 312 6 317 14 4 6 7 163 8 347 0 257 -3 339 -12 352 -15 19 -180 27
-343 16z m299 -34 c14 -5 16 -44 16 -329 l0 -322 -82 -6 c-46 -4 -172 -7 -280
-7 l-198 0 0 200 0 200 155 0 155 0 0 -115 0 -115 -25 0 c-23 0 -24 3 -27 73
l-3 72 -92 3 c-115 3 -115 3 -111 -145 l3 -108 211 -3 212 -2 7 202 c4 112 5
232 3 268 l-3 65 -125 -1 c-138 -1 -308 -31 -460 -81 l-85 -28 -5 -522 c-4
-399 -8 -525 -17 -535 -7 -6 -13 -19 -13 -28 0 -17 696 -685 714 -685 8 0 12
143 14 508 2 422 0 508 -11 505 -23 -5 -437 -322 -437 -334 0 -17 298 -296
310 -289 5 3 10 30 10 58 -1 50 -4 56 -69 132 -38 44 -68 82 -66 85 2 3 40 34
84 68 l81 63 0 -277 0 -276 -42 38 c-99 88 -422 403 -418 407 32 28 603 447
606 444 2 -2 3 -293 2 -646 l-3 -642 -290 277 c-159 152 -348 331 -419 398
l-129 121 7 580 c5 431 10 583 19 592 35 34 263 105 412 128 83 14 361 20 389
9z m-384 -918 c-8 -8 -80 -62 -160 -121 l-145 -106 -3 33 c-1 18 1 69 5 113
l8 80 65 6 c36 3 105 6 155 7 77 2 87 0 75 -12z"/>
<path d="M9015 4590 c-8 -12 -24 -509 -17 -527 6 -19 30 -16 36 5 10 36 25
390 18 456 -7 65 -21 91 -37 66z"/>
<path d="M15828 6935 c-472 -77 -886 -464 -1071 -1001 -82 -236 -113 -457
-104 -743 16 -498 149 -879 414 -1182 96 -110 334 -331 408 -380 384 -254 884
-276 1198 -53 71 51 85 47 89 -23 l3 -58 658 -3 657 -2 -2 502 -3 503 -57 3
-57 3 -3 67 -3 67 -102 3 -103 3 0 529 0 530 165 0 165 0 0 510 0 510 -60 0
-60 0 0 70 0 70 -670 0 -669 0 -3 -65 -3 -64 -79 54 c-195 135 -460 191 -708
150z m417 -54 c139 -40 277 -116 363 -199 23 -23 44 -42 47 -42 3 0 5 43 5 95
l0 95 630 0 630 0 0 -487 -1 -488 -245 250 c-135 138 -281 295 -325 350 -45
55 -84 101 -89 103 -7 3 -20 -11 -90 -98 -11 -14 -18 -18 -15 -9 3 9 -1 22
-10 29 -13 11 -22 10 -53 -3 -20 -8 -67 -18 -104 -21 -83 -6 -91 -10 -164 -86
l-59 -61 -27 20 -26 21 -134 -112 c-73 -61 -178 -144 -232 -185 -95 -70 -101
-73 -155 -73 -212 -1 -407 -123 -501 -313 -66 -135 -83 -215 -84 -407 0 -200
19 -294 90 -431 56 -109 160 -220 244 -261 221 -107 473 -65 648 109 l72 72 0
309 0 309 247 7 c136 4 251 10 255 14 4 4 -4 57 -18 117 -63 275 -76 357 -66
415 13 71 61 230 70 230 4 0 27 -29 51 -65 24 -36 49 -65 54 -65 6 0 23 15 38
33 l27 32 29 -27 c27 -26 30 -27 46 -11 16 17 23 12 117 -82 81 -81 97 -102
89 -116 -10 -20 -12 -603 -2 -982 l6 -257 159 0 158 0 0 -485 0 -485 -614 0
c-495 0 -616 3 -624 13 -6 7 -14 40 -18 73 -3 32 -7 65 -10 72 -2 8 -30 -8
-75 -43 -92 -71 -192 -119 -316 -152 -85 -22 -119 -26 -253 -26 -135 0 -167 3
-251 25 -251 67 -414 168 -616 382 -90 95 -203 246 -184 246 5 0 13 -4 16 -10
3 -5 38 -19 77 -31 57 -18 86 -21 154 -16 206 12 354 156 386 373 23 158 -26
287 -246 654 -72 120 -123 217 -133 253 -9 31 -21 57 -27 57 -7 0 -24 -29 -39
-64 -30 -68 -59 -120 -216 -384 -95 -160 -161 -304 -161 -353 0 -51 -20 1 -39
103 -60 323 -55 666 14 938 82 326 230 598 436 800 178 175 413 304 627 345
110 21 343 14 437 -14z m1800 -303 c0 -60 -1 -274 -3 -478 l-2 -370 -160 0
-160 0 0 -545 0 -545 -45 0 -45 0 0 590 0 590 163 2 162 3 3 433 2 433 43 -3
42 -3 0 -107z m-724 -145 c35 -43 171 -189 302 -325 l239 -248 -98 0 -97 0
-128 125 c-70 69 -132 125 -138 125 -7 0 -14 -7 -17 -15 -5 -12 -12 -10 -37
11 l-30 25 -34 -33 c-28 -27 -36 -30 -43 -18 -26 45 -72 100 -85 100 -8 0 -25
-5 -39 -11 -20 -9 -32 -9 -56 3 l-31 15 35 49 c19 27 69 100 111 162 42 61 77
112 80 112 2 0 32 -35 66 -77z m-221 -7 c-14 -13 -86 -79 -160 -146 -74 -68
-200 -185 -280 -260 l-145 -138 -47 28 -48 27 103 90 c139 124 220 203 308
301 l74 84 90 10 c50 6 94 15 100 19 22 21 27 7 5 -15z m-38 -123 c-37 -54
-89 -134 -117 -178 -27 -44 -88 -138 -135 -210 -48 -71 -99 -152 -115 -179
l-28 -49 -19 39 c-10 22 -39 61 -64 89 l-46 50 71 65 c38 36 148 137 243 225
169 157 268 245 274 245 2 0 -27 -44 -64 -97z m-327 -32 c-4 -7 -83 -82 -177
-167 -161 -146 -172 -155 -202 -148 -60 13 -62 19 -10 54 54 37 227 176 314
252 47 41 56 46 68 34 8 -8 11 -19 7 -25z m338 -138 c15 -3 27 -7 27 -9 0 -3
-14 -51 -31 -107 -38 -125 -36 -149 22 -410 23 -103 40 -190 38 -192 -3 -2
-109 -7 -237 -11 l-234 -7 4 119 c4 137 -25 78 211 437 114 174 133 198 151
192 12 -4 33 -9 49 -12z m-752 -209 c30 -9 79 -29 109 -45 59 -32 131 -87 95
-74 -188 73 -332 73 -474 0 -67 -33 -169 -131 -219 -208 -116 -178 -156 -508
-89 -737 14 -47 24 -86 22 -88 -1 -1 -21 35 -44 82 -64 128 -84 241 -78 436 5
178 18 236 78 359 68 137 186 237 326 276 68 19 208 18 274 -1z m120 -124 c81
-25 153 -70 173 -109 14 -26 16 -91 16 -469 l0 -439 -30 -41 c-30 -42 -111
-107 -169 -137 -138 -70 -282 -78 -428 -23 -112 42 -193 154 -234 324 -19 78
-21 109 -16 249 6 176 23 258 79 373 58 117 186 234 302 274 73 25 224 24 307
-2z m-1221 -457 c22 -42 70 -123 106 -180 109 -174 181 -310 209 -398 24 -73
27 -96 23 -177 -3 -78 -9 -104 -35 -159 -39 -85 -88 -138 -160 -177 -141 -75
-316 -59 -428 39 -47 42 -108 165 -130 263 -30 135 10 247 199 559 57 95 119
202 137 240 18 37 34 67 35 67 1 0 21 -35 44 -77z m2828 -1345 l2 -468 -624 0
-624 0 -5 33 c-2 17 -3 35 0 40 2 4 265 7 584 7 l579 0 0 431 0 430 43 -3 42
-3 3 -467z m-1418 -290 c1 -18 7 -50 14 -70 l13 -37 -86 -45 c-249 -129 -562
-134 -861 -15 -63 26 -190 94 -190 103 0 2 42 -12 93 -32 134 -50 251 -72 390
-72 209 0 405 54 542 149 39 27 73 49 78 50 4 0 7 -14 7 -31z"/>
<path d="M15354 6043 c-115 -214 -118 -222 -122 -292 -2 -54 1 -73 20 -106 35
-60 79 -85 151 -85 178 0 246 178 136 357 -12 18 -45 79 -74 134 l-52 101 -59
-109z m190 -227 c21 -62 20 -91 -5 -142 -22 -47 -82 -84 -133 -84 -67 0 -128
52 -140 120 l-6 35 15 -40 c26 -68 84 -113 126 -100 27 9 23 28 -10 48 -39 23
-71 91 -71 150 0 26 -4 47 -10 47 -17 0 -12 13 46 119 l57 102 58 -104 c31
-58 65 -126 73 -151z"/>
<path d="M15818 4483 c-18 -37 -56 -110 -83 -162 -45 -84 -50 -100 -50 -156 0
-79 32 -132 100 -165 122 -59 255 33 254 175 0 57 -14 95 -84 220 -27 50 -56
103 -65 119 -8 17 -20 31 -27 33 -6 2 -26 -27 -45 -64z m118 -129 c57 -107 67
-134 67 -178 1 -85 -40 -140 -114 -151 -18 -3 -28 -3 -21 1 21 10 13 32 -18
54 -36 26 -67 82 -76 139 -4 23 -11 44 -15 47 -5 3 1 24 12 47 34 66 90 167
94 167 2 0 34 -57 71 -126z"/>
<path d="M16166 5719 c-13 -30 -66 -126 -119 -214 -123 -209 -162 -287 -188
-382 -51 -184 13 -338 170 -411 49 -23 69 -27 156 -27 123 0 181 22 250 96 71
76 89 125 90 239 0 123 -20 181 -127 371 -44 79 -107 195 -140 258 -32 63 -60
117 -63 119 -3 3 -16 -19 -29 -49z m171 -291 c126 -225 152 -294 153 -399 0
-97 -20 -156 -76 -218 -58 -65 -126 -94 -219 -94 -86 0 -136 14 -198 53 -57
36 -102 104 -117 177 -25 116 20 243 177 504 38 63 85 142 103 176 l35 63 18
-38 c11 -20 66 -121 124 -224z"/>
<path d="M15950 5155 c-7 -9 -12 -50 -13 -107 0 -141 38 -215 139 -267 69 -36
102 -42 120 -23 15 15 15 17 -6 32 -107 74 -177 187 -187 301 -7 75 -25 97
-53 64z"/>
<path d="M14897 4793 c-57 -110 -62 -269 -12 -362 51 -92 145 -160 235 -169
34 -3 51 1 69 15 l24 19 -49 32 c-141 90 -222 232 -230 402 -2 47 -8 86 -13
88 -5 2 -16 -9 -24 -25z m65 -296 c19 -37 62 -92 106 -135 71 -71 72 -74 40
-67 -56 13 -103 42 -152 95 -66 75 -88 161 -69 275 l6 40 18 -73 c10 -40 33
-101 51 -135z"/>
<path d="M19345 6935 c-180 -35 -384 -126 -537 -240 -335 -252 -555 -649 -623
-1125 -30 -213 -16 -581 31 -805 38 -180 146 -435 251 -593 70 -106 345 -390
463 -478 163 -123 385 -218 605 -260 125 -24 369 -24 490 0 199 39 363 107
525 216 373 252 587 643 607 1108 l6 132 -56 0 -56 0 -3 63 -3 62 -446 3 -446
2 -12 -57 c-22 -97 -67 -180 -137 -249 -74 -73 -155 -116 -261 -140 -129 -28
-287 5 -388 82 -50 38 -112 166 -131 274 -20 110 -13 303 15 413 54 210 192
360 384 419 93 28 262 22 351 -12 111 -43 173 -127 192 -262 l6 -48 49 0 48 0
3 -57 3 -58 438 -3 437 -2 0 700 0 700 -60 0 -60 0 0 70 0 70 -425 0 -425 0 0
-60 0 -59 -77 49 c-88 57 -195 101 -316 131 -111 27 -332 34 -442 14z m302
-26 c182 -20 344 -81 486 -183 l77 -55 0 79 0 80 390 0 390 0 0 -680 0 -680
-392 2 -393 3 -7 51 c-15 103 -84 215 -178 285 l-52 39 -4 67 c-3 38 -8 84
-12 103 -9 41 -6 40 -172 22 -144 -15 -296 -25 -290 -19 3 3 52 10 110 16 58
6 152 15 210 21 58 6 110 12 116 14 8 3 6 31 -6 93 l-16 88 -125 0 c-68 0
-180 -2 -249 -4 l-125 -3 -6 118 c-4 66 -7 127 -8 137 -1 15 -14 17 -125 17
l-123 0 -7 -37 c-3 -21 -6 -72 -6 -113 0 -41 -3 -91 -6 -111 l-6 -36 -231 -6
c-127 -4 -235 -11 -240 -16 -12 -12 -34 -136 -43 -245 -6 -77 -5 -85 15 -105
20 -20 30 -21 250 -21 l230 0 -5 -32 c-4 -31 -17 -260 -45 -783 -7 -133 -16
-219 -24 -235 -14 -26 -114 -129 -151 -155 -20 -13 -29 -12 -95 11 -55 19 -96
26 -159 28 l-85 1 3 -61 c3 -56 1 -64 -30 -105 -19 -24 -54 -59 -78 -77 l-45
-34 -23 50 c-95 211 -147 451 -159 742 -20 522 141 1002 446 1322 241 254 555
404 869 417 18 0 76 -4 129 -10z m1471 -886 l-3 -668 -402 -3 -403 -2 0 45 0
45 360 0 360 0 0 625 0 625 45 0 45 0 -2 -667z m-1899 285 c-4 -95 -7 -190 -8
-210 l-1 -38 -272 -2 -273 -3 -3 -31 -3 -32 284 -7 c157 -4 290 -4 296 -1 7 5
11 80 11 232 0 176 3 225 13 222 9 -4 14 -58 18 -204 4 -109 7 -211 8 -226 1
-27 2 -28 64 -28 69 1 421 25 509 36 l56 7 7 -67 c4 -37 6 -69 3 -71 -2 -2
-39 7 -83 21 -288 91 -567 -24 -705 -291 -23 -45 -29 -53 -26 -30 3 17 8 85
12 152 l6 123 -243 2 -244 3 -3 60 c-1 33 3 103 10 155 l13 95 242 9 242 8 5
37 c3 20 8 84 11 144 l7 107 26 0 27 0 -6 -172z m146 36 l7 -136 122 6 c66 3
179 7 250 8 l129 3 12 -60 c7 -33 12 -60 11 -61 -9 -6 -567 -57 -571 -52 -2 2
-7 92 -11 201 -7 185 -8 199 -28 212 -19 14 -18 15 26 15 l46 0 7 -136z m423
-458 c65 -18 169 -66 202 -94 l25 -22 -60 21 c-135 46 -303 32 -444 -37 -143
-70 -262 -226 -306 -399 -39 -154 -36 -394 7 -522 13 -40 23 -73 22 -73 -10 0
-71 126 -94 193 -55 161 -61 318 -20 495 53 225 202 389 398 436 75 19 204 19
270 2z m1222 -963 c0 -191 -58 -427 -147 -608 -88 -176 -246 -366 -407 -487
-79 -60 -81 -60 -133 -55 -29 3 -90 22 -135 42 -46 21 -121 51 -168 69 -81 29
-92 31 -225 30 -123 -1 -153 -4 -250 -31 -274 -75 -429 -113 -497 -122 -64 -8
-77 -7 -106 10 -45 26 -175 126 -241 185 -70 63 -207 227 -193 232 5 1 56 -6
112 -18 56 -11 114 -20 129 -20 54 0 285 -50 302 -66 16 -14 31 -14 168 0 83
9 192 16 241 16 72 0 92 3 96 15 4 8 -6 104 -20 213 -14 108 -26 200 -26 203
0 4 46 5 103 2 158 -8 260 25 381 124 78 62 137 151 167 247 l24 76 412 0 413
0 0 -57z m-1934 -120 c-4 -65 -13 -243 -21 -396 -7 -154 -15 -281 -17 -283 -6
-5 -443 81 -517 101 -57 16 -61 20 -90 74 l-30 57 53 41 c30 23 68 62 86 88
28 41 31 53 28 102 l-3 55 60 -5 c33 -3 97 -18 143 -32 45 -14 92 -23 102 -20
27 8 152 132 179 175 15 26 21 52 21 98 0 34 3 62 6 62 4 0 4 -53 0 -117z m75
26 c59 -110 192 -234 280 -260 21 -7 39 -13 39 -15 0 -1 11 -79 25 -174 14
-95 25 -189 25 -211 l0 -39 -112 -1 c-62 0 -160 -6 -218 -13 -58 -7 -107 -11
-109 -9 -3 2 3 166 12 366 10 199 17 374 17 390 0 15 2 27 4 27 3 0 19 -28 37
-61z m1974 -51 c-16 -219 -40 -337 -101 -491 -186 -469 -625 -792 -1136 -836
-220 -19 -450 20 -662 111 -65 28 -236 124 -236 133 0 2 40 -14 88 -35 112
-48 225 -84 338 -107 132 -26 385 -23 521 6 260 55 482 173 672 355 123 120
208 235 280 381 87 175 134 334 148 498 l6 67 44 0 43 0 -5 -82z m-1153 -914
c29 -9 100 -37 158 -62 58 -25 125 -50 149 -57 l44 -11 -79 -36 c-196 -89
-371 -128 -573 -128 -141 0 -228 11 -346 41 -89 23 -285 98 -285 109 0 4 24
10 53 14 60 8 229 50 405 100 67 20 150 40 185 45 79 12 220 5 289 -15z"/>
<path d="M26707 6940 c-136 -23 -287 -86 -414 -173 l-83 -56 0 69 0 70 -675 0
-675 0 0 -515 0 -515 55 0 55 0 0 -60 0 -60 100 0 100 0 0 -535 0 -535 -162
-2 -163 -3 -3 -507 -2 -508 60 0 60 0 0 -65 0 -65 831 0 832 0 -6 488 -5 487
-29 3 c-75 7 -73 5 -73 92 l0 80 -110 0 -110 0 0 369 c0 208 4 392 10 422 33
174 194 299 386 299 120 0 224 -51 263 -128 40 -79 41 -112 41 -1062 l0 -920
55 0 55 0 0 -65 0 -65 665 0 665 0 -2 493 -3 492 -47 3 -48 3 0 80 0 79 -125
0 -124 0 -3 543 -4 542 -27 128 c-69 315 -182 539 -372 736 -190 197 -391 315
-605 355 -87 17 -280 20 -363 6z m403 -50 c169 -43 378 -167 504 -300 92 -98
188 -247 235 -368 l20 -49 -52 -7 c-42 -5 -54 -3 -62 11 -68 113 -138 109
-203 -12 -23 -42 -32 -50 -60 -53 -26 -3 -35 -10 -47 -38 -16 -39 -29 -47 -15
-8 6 14 10 75 10 135 0 69 5 117 12 129 10 16 9 25 -5 49 -13 22 -17 52 -17
128 0 123 -12 145 -117 213 -92 61 -115 54 -55 -17 23 -26 48 -64 56 -84 35
-85 29 -195 -14 -234 -26 -24 -25 -33 5 -47 25 -11 25 -12 25 -145 l0 -133
-37 0 c-22 0 -45 -8 -57 -19 -14 -12 -41 -20 -78 -23 -55 -4 -58 -3 -58 18 0
12 -3 30 -6 39 -8 20 -56 45 -88 45 -37 0 -104 -63 -112 -106 l-6 -34 -63 0
c-55 0 -65 3 -70 20 -5 16 -15 20 -50 20 -47 0 -55 11 -55 78 0 38 -33 92 -56
92 -8 0 -12 5 -9 10 4 6 -7 15 -24 21 -17 6 -31 17 -31 25 0 8 -10 14 -24 14
-13 0 -27 7 -30 16 -4 10 -13 13 -26 9 -19 -6 -20 -2 -20 124 0 71 -4 132 -9
136 -14 8 -42 -26 -74 -90 -22 -43 -26 -59 -17 -69 6 -9 10 -42 8 -83 l-3 -68
-35 -3 c-45 -3 -78 -20 -85 -43 -3 -10 -15 -21 -26 -24 -10 -4 -19 -12 -19
-20 0 -7 -7 -15 -14 -18 -8 -3 -20 -25 -27 -49 -12 -47 -23 -58 -57 -58 -45 0
-67 -34 -72 -113 l-5 -72 -55 -7 c-30 -3 -67 -9 -82 -13 -23 -6 -29 -3 -42 23
-20 39 -62 72 -92 72 -26 0 -80 -42 -89 -69 -3 -10 -17 -23 -30 -29 -17 -8
-24 -18 -22 -34 2 -19 -2 -22 -23 -20 -50 6 -81 2 -116 -14 -28 -13 -40 -14
-60 -5 -14 6 -33 11 -43 11 -11 0 -21 6 -24 14 -3 8 -28 20 -56 27 -43 11 -51
16 -51 36 l0 23 -160 0 -160 0 0 485 0 485 640 0 639 0 3 -97 3 -96 64 55
c118 103 304 192 468 223 108 20 292 14 403 -15z m292 -403 c4 -67 7 -129 7
-137 0 -8 -3 -82 -5 -165 -3 -98 -9 -152 -17 -157 -8 -5 -9 -17 -1 -46 8 -31
8 -46 -3 -66 -7 -14 -18 -26 -23 -26 -17 0 -11 -38 8 -50 11 -7 12 -10 2 -7
-8 2 -46 -7 -84 -20 -38 -12 -70 -23 -71 -23 0 0 5 39 13 87 14 81 14 87 -4
100 -17 12 -17 13 3 13 11 0 26 7 33 14 6 8 33 16 58 18 l47 3 3 157 c2 144 1
158 -16 169 -18 11 -18 13 0 48 24 45 21 178 -5 230 -24 48 -21 50 16 13 32
-32 32 -34 39 -155z m313 -315 l30 -47 64 4 c60 3 80 -5 81 -30 0 -4 -40 -10
-90 -13 -84 -7 -90 -9 -90 -29 0 -12 -9 -37 -20 -54 -33 -55 -95 -40 -115 27
-4 14 -12 28 -18 32 -16 10 -59 -10 -96 -45 l-33 -32 33 48 c22 31 40 47 54
47 26 0 45 20 75 80 26 52 35 60 70 60 19 0 32 -12 55 -48z m-1231 -13 c22
-11 48 -18 60 -15 46 12 63 -2 68 -57 6 -68 31 -107 69 -107 28 0 29 -1 29
-51 0 -48 -1 -51 -23 -45 -184 46 -402 -32 -493 -175 -22 -35 -24 -36 -74 -31
l-51 5 3 -44 c3 -42 5 -44 36 -47 l32 -3 0 -312 0 -311 -62 -63 c-57 -58 -61
-64 -46 -79 15 -15 20 -14 62 15 l46 32 0 -116 c0 -109 -1 -115 -20 -115 -20
0 -20 -5 -18 -137 l3 -138 188 -3 c113 -1 187 -6 187 -12 0 -6 -28 -10 -62
-10 -35 0 -205 -4 -378 -10 -677 -21 -969 -30 -1065 -31 l-100 -2 -3 26 c-3
24 0 26 45 32 26 3 58 8 70 11 18 3 22 -1 25 -23 l3 -28 100 4 c55 2 129 6
165 10 61 6 65 7 64 31 0 14 -4 37 -9 53 -7 26 -6 27 33 27 l40 0 7 -50 c6
-47 9 -50 36 -50 28 0 29 2 29 46 0 51 18 134 30 134 4 0 13 -6 19 -14 7 -8
27 -17 46 -20 l35 -7 0 -65 0 -65 113 3 112 3 3 27 c3 25 7 27 60 30 l56 3 -4
55 c-6 65 -6 239 -2 795 l4 410 -26 3 c-23 3 -26 8 -26 43 0 39 0 39 40 39 33
0 40 -3 40 -20 0 -17 7 -20 39 -20 25 0 41 5 45 15 13 35 -13 53 -79 56 -26 2
-24 3 10 8 l40 6 1 78 c1 43 4 80 7 83 3 3 22 10 43 14 l37 9 -6 -65 -6 -65
27 3 c25 3 28 8 40 68 22 117 85 217 152 243 36 13 116 6 154 -14z m1471 -111
c19 -58 46 -162 60 -230 24 -123 25 -128 25 -658 l1 -535 -36 -3 -35 -3 0 579
c1 536 -1 589 -20 723 -12 79 -27 167 -35 196 -34 118 -6 70 40 -69z m-915 27
c35 -18 36 -24 11 -56 -18 -23 -27 -52 -38 -115 -4 -25 0 -35 21 -51 34 -27
33 -33 -7 -33 -17 0 -48 -4 -66 -10 -19 -5 -37 -8 -39 -5 -2 2 3 25 12 51 19
58 20 49 -5 73 -13 12 -17 21 -10 26 6 3 11 20 11 37 0 21 10 40 34 64 39 39
38 39 76 19z m-1257 -253 c11 -19 16 -40 12 -52 -8 -25 -55 -46 -65 -29 -4 6
-18 10 -31 9 -54 -5 -69 0 -69 20 0 11 4 20 9 20 5 0 14 14 21 30 7 17 25 37
39 45 32 17 56 4 84 -43z m957 4 c47 -24 145 -104 137 -113 -2 -1 -26 6 -54
17 -109 41 -211 35 -329 -21 -88 -41 -157 -107 -196 -187 l-33 -67 -3 -412 -3
-413 -39 0 -40 0 0 473 c0 290 4 486 10 509 27 94 127 193 235 228 91 30 240
24 315 -14z m1192 -31 c3 -33 4 -62 2 -64 -2 -3 -111 -15 -242 -27 -130 -13
-254 -25 -274 -28 -32 -5 -38 -3 -38 12 0 19 -18 42 -32 42 -5 0 -33 -25 -63
-56 -55 -55 -70 -95 -45 -120 12 -12 9 -913 -3 -917 -4 -1 -9 133 -11 298 -2
270 -4 308 -23 377 -40 144 -94 218 -166 232 -29 5 -37 13 -51 49 -9 23 -34
69 -55 102 l-40 60 34 7 c86 19 249 28 281 16 26 -9 48 -9 101 1 90 17 572 80
598 78 17 -2 21 -12 27 -62z m-2632 -60 c19 -14 43 -25 55 -25 12 0 26 -5 32
-11 9 -9 25 -6 63 10 53 23 97 25 93 4 -2 -7 6 -14 16 -18 14 -4 17 -12 12
-36 -5 -27 -14 -32 -91 -59 -47 -16 -87 -30 -90 -30 -3 0 -4 18 -2 39 4 38 2
40 -50 70 -37 22 -60 30 -78 25 -13 -3 -29 -6 -35 -7 -5 -1 -11 13 -13 31 -3
29 -1 32 25 32 16 0 44 -11 63 -25z m2050 -75 c0 -25 22 -26 206 -4 74 8 140
14 146 12 7 -3 -53 -13 -133 -23 -171 -22 -195 -27 -192 -46 1 -8 -12 -21 -30
-29 -43 -20 -46 -44 -8 -60 42 -17 116 -99 132 -146 7 -21 12 -65 12 -97 -1
-48 2 -59 19 -68 14 -8 27 -8 43 -1 21 10 23 16 20 99 -1 72 -6 97 -28 139
-14 27 -33 56 -41 63 -23 19 -20 28 12 44 58 30 70 30 74 1 6 -49 31 -52 76
-12 38 34 93 58 135 58 10 0 40 -11 67 -25 27 -14 55 -25 62 -25 10 0 12 -100
10 -509 l-2 -508 64 -6 c35 -3 79 -1 98 4 18 6 50 10 71 10 35 -1 37 1 37 29
0 29 2 30 45 30 l45 0 0 -84 0 -85 -42 -5 c-24 -3 -279 -12 -568 -21 -289 -8
-554 -16 -590 -18 -54 -2 -65 1 -68 15 -3 14 6 17 55 20 l58 3 6 95 c4 52 7
192 8 311 1 205 0 218 -20 243 -17 21 -29 26 -65 26 l-44 0 0 194 c0 107 -3
201 -6 210 -10 25 30 20 64 -9 37 -31 76 -119 96 -217 19 -90 24 -558 6 -558
-13 0 -13 -230 0 -264 13 -35 42 -49 76 -36 25 10 26 13 21 59 l-6 49 122 4
c67 2 123 3 125 2 1 -1 6 -21 10 -45 l8 -44 175 -3 176 -2 6 217 c3 120 2 267
-1 327 -7 105 -8 110 -35 130 -25 18 -42 21 -131 20 -87 -1 -111 -5 -158 -26
-56 -26 -95 -68 -63 -68 13 0 15 -26 15 -195 0 -123 -4 -195 -10 -195 -5 0
-10 9 -10 21 0 12 -8 23 -20 26 -18 5 -20 15 -22 182 -3 174 -3 176 -25 179
l-23 3 0 -210 c0 -182 -2 -211 -15 -211 -8 0 -23 -9 -32 -20 -10 -11 -27 -20
-39 -20 -19 0 -22 7 -28 77 -3 42 -6 259 -6 483 0 343 -2 409 -14 420 -18 14
-10 35 29 77 35 38 45 40 45 13z m-1433 -305 c-2 -285 -5 -303 -26 -167 -12
81 -43 162 -70 186 -11 10 -85 27 -192 46 -202 35 -216 36 -241 13 -16 -14
-18 -35 -19 -197 0 -200 -12 -209 -23 -17 -7 145 -14 157 -87 167 l-49 7 0 90
0 90 56 -6 c30 -3 66 -13 79 -21 32 -21 34 -21 139 18 98 37 258 65 413 75
l22 1 -2 -285z m-294 30 c82 -14 158 -30 168 -35 40 -22 81 -205 94 -422 5
-93 5 -96 -15 -91 -13 3 -20 14 -20 29 0 43 -33 64 -100 64 -51 0 -64 -4 -91
-28 l-31 -27 -5 -162 -6 -162 -71 -3 c-70 -3 -71 -3 -76 -33 -4 -21 -11 -31
-28 -33 -13 -2 -22 2 -22 10 0 7 -7 26 -16 43 -13 26 -14 79 -9 430 3 220 8
410 11 423 6 29 27 29 217 -3z m-326 -48 c13 -14 29 -244 39 -565 l7 -213 -28
-26 c-28 -26 -29 -43 -13 -148 2 -14 -3 -21 -19 -23 l-23 -3 0 241 c0 187 -3
248 -14 275 -8 19 -20 35 -25 35 -8 0 -11 75 -11 226 l0 226 38 -7 c20 -3 42
-12 49 -18z m2550 -281 c4 -4 9 -137 11 -295 l3 -288 -32 -7 c-17 -3 -80 -6
-140 -6 l-109 0 0 268 c0 305 -5 286 86 323 49 19 163 23 181 5z m-756 -6 c18
-10 19 -24 19 -305 l0 -295 -45 0 -45 0 0 295 0 296 23 9 c29 11 26 11 48 0z
m-1313 -156 l22 -6 0 -254 0 -254 -76 0 -77 0 7 238 c7 221 9 238 29 260 20
22 52 27 95 16z m-557 -304 l-6 -235 -82 -3 -83 -3 0 46 c0 25 7 62 15 82 8
19 15 53 15 74 l0 38 63 3 62 3 4 140 c2 84 6 130 11 115 4 -14 4 -131 1 -260z
m1259 -109 l0 -79 -154 -7 c-85 -4 -159 -4 -165 0 -6 3 -11 33 -11 66 l0 59
38 1 c20 0 87 8 147 18 61 10 118 19 128 20 15 1 17 -9 17 -78z m100 -511 l0
-460 -792 2 -793 3 -3 48 -3 47 760 0 761 0 0 410 0 410 35 0 35 0 0 -460z
m1811 413 c0 -27 2 -231 4 -455 l5 -408 -630 0 -630 0 0 45 0 45 574 0 574 0
6 123 c4 67 13 246 21 397 8 151 15 281 15 288 0 7 13 12 30 12 29 0 30 -2 31
-47z m-101 -35 c0 -18 -3 -70 -6 -115 l-7 -81 -106 -7 c-58 -4 -109 -12 -112
-18 -4 -5 -3 -22 1 -37 l8 -27 -61 31 -61 31 -230 -1 c-156 0 -238 -5 -253
-12 -18 -10 -24 -9 -30 2 -6 11 -26 13 -97 9 l-88 -6 4 -58 c2 -33 3 -59 2
-59 -2 0 -16 19 -32 43 -33 47 -80 67 -157 67 l-45 0 0 115 0 115 48 1 c26 0
261 9 522 18 261 10 526 19 588 20 l112 1 0 -32z m-1812 -155 l3 -110 -223 -6
c-123 -3 -258 -3 -300 0 -46 3 -95 1 -120 -5 -25 -7 -163 -14 -323 -16 -154
-3 -362 -8 -462 -12 l-183 -7 0 110 0 110 163 7 c132 5 612 19 1327 39 52 1
100 2 105 2 6 -1 11 -48 13 -112z m1786 -155 c-2 -40 -6 -116 -8 -170 -6 -130
-11 -138 -90 -138 l-62 0 -22 53 c-39 93 -100 151 -177 166 -21 5 -36 19 -55
51 -15 26 -43 54 -64 66 l-39 22 32 7 c52 11 158 -5 214 -34 35 -18 61 -41 85
-76 18 -27 40 -51 48 -53 23 -5 17 53 -11 108 -14 27 -25 54 -25 60 0 6 34 10
89 10 l89 0 -4 -72z m-856 20 c2 -16 7 -28 12 -28 5 0 23 12 41 28 31 25 39
27 143 30 l111 3 -31 -20 c-39 -24 -62 -56 -70 -96 -5 -27 -11 -32 -54 -42
-27 -7 -63 -22 -79 -34 -31 -22 -71 -101 -71 -139 0 -20 -4 -21 -72 -18 l-72
3 -9 42 c-10 51 -75 129 -116 138 -21 4 -33 15 -40 36 -6 16 -26 38 -46 50
-26 16 -35 27 -33 43 4 27 44 32 105 15 46 -13 76 -46 122 -137 12 -24 27 -41
34 -39 14 4 16 78 4 150 l-8 48 63 -3 c60 -3 63 -4 66 -30z m-1289 -18 l115 0
-33 -23 c-19 -13 -44 -43 -55 -68 -19 -39 -25 -44 -58 -47 -47 -4 -73 -35 -89
-108 l-12 -54 -63 0 c-65 0 -74 6 -74 52 0 11 -10 38 -22 59 -17 30 -29 40
-57 45 -46 8 -61 21 -61 49 0 13 -12 37 -26 54 l-26 31 106 0 c67 0 107 4 112
11 4 8 27 9 67 5 33 -3 112 -6 176 -6z m361 -90 c0 -55 -4 -100 -8 -100 -4 0
-16 13 -25 30 -10 17 -30 32 -45 36 -47 10 -50 12 -57 43 -3 16 -17 41 -30 55
-28 31 -22 33 88 35 l77 1 0 -100z m1296 81 c19 -12 38 -37 50 -64 17 -42 21
-45 61 -50 78 -8 158 -97 170 -187 4 -25 11 -40 19 -40 8 0 14 -11 14 -25 l0
-25 -348 0 -349 0 5 30 c3 20 10 30 22 30 13 0 19 11 25 47 14 94 67 153 137
153 34 0 53 19 67 67 12 43 51 83 80 83 9 0 30 -9 47 -19z m-2298 -11 l93 0
-21 -30 c-11 -16 -25 -42 -31 -59 -8 -23 -19 -31 -54 -40 -37 -9 -48 -18 -65
-51 -11 -21 -20 -48 -20 -59 0 -44 -10 -51 -71 -51 l-59 0 0 38 c0 48 -51 122
-83 122 -45 0 -67 12 -67 35 0 13 -12 37 -26 54 l-26 31 89 1 c48 1 115 5 148
9 33 4 69 6 80 4 11 -2 62 -4 113 -4z m812 -25 c6 -8 18 -34 25 -57 11 -38 16
-44 47 -49 22 -3 49 -20 76 -47 l42 -42 0 -80 0 -80 -245 0 -245 0 0 30 c0 23
4 30 20 30 17 0 20 7 20 44 0 87 27 126 89 126 28 0 34 6 55 54 33 75 86 108
116 71z m-643 -10 c11 -8 26 -34 32 -59 11 -45 15 -48 77 -61 38 -7 64 -56 64
-120 0 -38 3 -45 20 -45 16 0 20 -7 20 -30 l0 -30 -240 0 -240 0 0 25 c0 13 6
28 14 32 7 4 16 32 19 62 9 75 26 97 81 105 42 7 46 10 56 45 10 37 50 91 67
91 5 0 18 -7 30 -15z m1428 -53 c7 -25 16 -33 41 -38 18 -3 42 -15 54 -26 30
-28 60 -95 60 -135 0 -26 4 -33 20 -33 15 0 20 -7 20 -24 0 -19 6 -26 28 -29
15 -2 -42 -5 -125 -6 l-153 -1 0 176 0 176 23 -14 c12 -8 26 -29 32 -46z
m-2030 28 c10 -11 21 -37 24 -58 6 -36 8 -37 53 -42 63 -8 87 -37 88 -106 0
-42 4 -53 19 -57 10 -2 20 -16 23 -31 l5 -26 -193 0 -194 0 0 104 c0 110 3
116 51 116 12 0 21 9 24 28 18 84 61 115 100 72z"/>
<path d="M25990 4495 l0 -135 30 0 30 0 0 135 0 135 -30 0 -30 0 0 -135z"/>
<path d="M22453 6930 c-159 -22 -330 -85 -469 -171 -130 -80 -318 -269 -417
-419 -216 -328 -317 -682 -317 -1115 1 -418 110 -799 321 -1115 76 -114 326
-375 443 -462 113 -84 276 -162 421 -200 111 -29 132 -31 290 -31 154 -1 179
2 270 26 112 30 225 81 297 132 26 19 52 35 58 35 5 0 10 -28 12 -62 l3 -63
668 -3 667 -2 0 504 0 504 -31 6 c-17 3 -44 6 -60 6 -29 0 -29 0 -29 65 l0 65
-105 0 -105 0 2 533 3 532 160 0 160 0 3 518 2 517 -65 0 -65 0 0 70 0 70
-660 0 -660 0 0 -73 c0 -41 -3 -76 -6 -80 -3 -3 -35 18 -71 48 -141 116 -286
164 -518 170 -77 2 -168 0 -202 -5z m214 -30 c7 0 4 -15 -9 -42 -12 -24 -36
-78 -54 -121 -19 -43 -57 -112 -86 -153 -38 -56 -48 -78 -40 -86 18 -18 106
14 191 68 39 26 75 43 79 40 6 -7 -10 -91 -42 -220 l-15 -59 54 -56 53 -56 62
67 c33 37 77 77 97 89 l36 22 17 -20 c15 -19 50 -240 64 -409 l5 -62 -57 24
c-88 36 -156 47 -266 42 -112 -5 -171 -22 -257 -74 -144 -86 -238 -234 -286
-447 -25 -111 -22 -328 5 -439 64 -260 230 -440 454 -493 181 -43 380 9 508
131 33 31 60 52 60 45 0 -7 22 -34 50 -62 54 -54 66 -88 58 -169 -6 -61 -49
-134 -134 -226 -60 -65 -79 -104 -51 -104 6 0 53 33 102 73 92 75 194 200 213
261 8 28 10 24 16 -39 25 -257 47 -339 116 -430 45 -60 80 -116 80 -129 0 -3
-24 -6 -52 -8 -47 -3 -53 -6 -56 -26 -4 -24 32 -64 133 -149 l50 -42 -235 2
-235 2 -9 75 c-4 41 -9 76 -11 78 -1 2 -32 -19 -67 -46 -73 -55 -245 -132
-365 -163 -259 -67 -589 -11 -826 138 -27 17 -45 40 -62 79 -14 31 -38 73 -55
94 -16 21 -30 42 -30 47 0 4 25 28 56 52 31 24 65 59 75 76 l19 32 113 6 c61
3 159 15 216 26 78 16 108 18 118 9 7 -6 17 -8 21 -3 4 4 12 -19 17 -51 7 -40
16 -60 27 -62 23 -4 27 15 35 156 5 107 9 129 25 142 33 26 3 46 -162 108 -85
32 -169 66 -187 75 -40 21 -82 22 -110 2 -12 -8 -48 -23 -81 -34 -119 -37
-338 -204 -362 -276 -6 -19 -18 -39 -26 -45 -22 -19 -18 75 8 173 11 45 22
116 22 157 1 41 5 81 10 88 4 7 10 38 13 69 5 45 3 57 -10 65 -11 6 -17 22
-17 46 0 20 -5 54 -11 75 -11 40 -26 45 -73 27 -22 -8 -25 -14 -20 -42 4 -18
7 -37 8 -42 0 -6 -12 -12 -29 -16 -30 -5 -30 -6 -30 -75 0 -39 -4 -80 -8 -92
-5 -13 -2 -44 7 -78 11 -43 12 -64 3 -93 l-11 -37 -7 60 c-9 87 -21 107 -103
193 l-73 78 -16 89 c-36 197 -41 247 -41 435 1 208 18 349 70 547 48 186 154
415 261 567 66 92 211 247 287 305 177 136 398 224 606 240 58 5 114 7 125 5
11 -2 25 -4 32 -4z m198 -26 c75 -19 84 -27 65 -62 -19 -34 -82 -64 -123 -60
-29 3 -33 8 -58 76 l-27 73 41 -6 c23 -3 69 -13 102 -21z m-139 -83 c12 -34
27 -57 41 -64 27 -12 29 -20 8 -37 -8 -7 -15 -18 -15 -24 0 -11 -124 -88 -192
-118 -44 -20 -47 -16 -14 26 29 38 63 107 106 209 18 43 36 75 40 70 4 -4 16
-32 26 -62z m979 40 c-10 -9 -205 -68 -240 -73 -26 -3 -105 48 -105 67 0 13
27 15 177 15 102 0 173 -4 168 -9z m391 -13 c-22 -31 -20 -121 4 -293 22 -161
50 -422 50 -471 l0 -33 -46 21 c-26 11 -50 16 -55 11 -5 -5 2 -39 16 -78 14
-39 25 -81 25 -94 l0 -24 -26 26 c-28 28 -77 152 -114 287 -12 47 -24 91 -26
98 -6 22 -30 13 -76 -28 l-46 -40 -12 31 c-11 27 -17 30 -43 26 l-30 -4 6 78
c5 75 43 229 56 229 4 0 17 -30 29 -67 26 -81 58 -136 75 -130 23 7 18 43 -26
167 -25 69 -50 152 -56 185 -7 33 -14 70 -17 82 -3 15 -15 26 -37 32 -23 6 25
9 166 10 l198 1 -15 -22z m434 -133 l0 -156 -22 12 c-13 7 -53 44 -90 83 -59
60 -68 75 -68 107 0 44 -22 66 -92 90 l-53 18 163 1 162 0 0 -155z m-1468 116
c25 -16 48 -33 50 -38 2 -4 -7 -49 -22 -100 l-26 -92 -45 114 c-59 149 -49
174 43 116z m1191 -12 c42 -11 44 -25 5 -49 -14 -8 -35 -24 -47 -35 -97 -88
-89 -83 -95 -61 -3 12 -6 49 -6 83 0 87 22 96 143 62z m-488 -70 c9 -68 8 -78
-13 -128 -35 -83 -62 -208 -62 -293 l0 -77 -77 -52 c-43 -29 -88 -61 -100 -72
-22 -19 -23 -20 -30 -1 -5 10 -8 55 -7 99 0 69 6 95 43 190 24 61 66 174 94
252 51 139 53 142 87 151 19 6 39 9 45 8 5 -2 14 -36 20 -77z m-791 -6 c28
-55 78 -216 83 -269 3 -30 8 -54 11 -54 3 0 14 7 24 17 17 15 18 14 18 -15 0
-17 -5 -34 -10 -37 -6 -4 -9 -53 -6 -133 3 -70 3 -113 0 -97 -28 185 -39 236
-58 275 -13 25 -29 62 -36 83 -7 23 -22 43 -36 49 -31 15 -39 6 -21 -24 8 -12
17 -37 20 -55 6 -30 3 -35 -51 -73 -31 -22 -68 -56 -82 -75 -14 -19 -27 -35
-31 -35 -3 0 -20 15 -38 34 l-33 34 26 105 c14 57 26 127 26 154 0 68 23 93
113 124 68 23 64 23 81 -8z m384 -30 c11 -27 23 -58 27 -70 9 -32 16 -29 50
22 27 40 38 48 98 66 38 11 71 19 72 17 2 -2 -29 -91 -70 -198 -41 -107 -79
-215 -86 -240 l-11 -45 -40 105 c-35 93 -47 112 -101 168 l-62 63 30 57 c42
79 56 102 65 102 4 0 17 -21 28 -47z m-169 9 l34 -28 -12 -52 -11 -52 67 -70
c62 -64 70 -77 110 -187 23 -65 52 -148 63 -184 29 -96 35 -98 109 -39 34 27
83 64 109 82 l47 32 -22 -34 c-12 -20 -69 -69 -133 -113 l-110 -78 -48 39
c-26 22 -62 48 -80 58 -48 28 -102 115 -140 229 -33 97 -36 146 -15 201 10 27
-26 14 -51 -18 -15 -19 -26 -27 -26 -18 0 46 57 260 69 260 4 0 22 -13 40 -28z
m1471 -477 l0 -485 -160 0 -160 0 -1 -152 c-1 -84 -2 -252 -4 -373 -1 -121 -3
-300 -4 -398 l-1 -178 -37 3 -38 3 -3 593 -2 592 160 0 160 0 0 433 c0 239 3
437 7 440 3 4 24 7 45 7 l38 0 0 -485z m-338 448 c20 -16 48 -43 63 -60 15
-18 53 -52 86 -74 l59 -42 0 -123 c0 -107 -2 -124 -16 -124 -13 0 -15 -8 -10
-47 3 -27 8 -73 10 -103 5 -50 4 -48 -17 33 -20 76 -29 93 -69 135 -35 36 -48
59 -56 97 -9 42 -81 258 -107 318 -11 26 16 21 57 -10z m-63 -65 c24 -63 76
-229 86 -277 4 -20 26 -54 52 -82 50 -54 76 -128 89 -260 5 -50 13 -78 25 -90
11 -11 19 -22 19 -26 0 -5 -66 -6 -147 -3 l-147 5 -18 49 c-21 54 -29 107 -59
393 l-21 202 22 45 c24 50 57 96 70 96 4 0 17 -24 29 -52z m-1069 -436 c31
-59 55 -84 149 -160 39 -31 41 -36 35 -70 -4 -20 -16 -57 -26 -82 l-19 -44 49
-46 c55 -50 55 -49 66 -250 l6 -95 -59 92 c-33 51 -64 100 -69 110 -14 27 -32
148 -34 231 l-2 72 -42 16 c-23 9 -56 28 -72 43 l-30 26 -6 150 c-5 133 -4
145 8 109 7 -22 28 -68 46 -102z m728 -3 c13 -45 47 -150 78 -233 54 -149 84
-249 84 -280 0 -12 -9 -16 -34 -16 -19 0 -39 -7 -47 -16 -11 -14 -10 -19 13
-38 14 -11 45 -32 68 -46 l42 -25 -113 -3 c-101 -2 -114 -1 -134 18 -29 27
-53 25 -120 -10 -32 -17 -60 -28 -62 -26 -3 3 -2 112 2 242 l8 237 58 63 c42
45 60 73 64 101 7 38 48 113 63 113 4 0 17 -37 30 -81z m-137 18 c11 -27 13
-50 8 -64 -14 -38 -83 -96 -197 -166 -125 -76 -140 -90 -122 -112 6 -8 20 -17
31 -20 24 -8 24 -14 -4 -48 l-23 -29 -52 33 c-47 29 -52 36 -47 58 14 56 49
92 168 173 133 90 166 120 193 179 9 22 20 39 23 39 4 0 14 -19 22 -43z m351
-187 c15 -11 36 -49 52 -90 25 -68 26 -79 26 -278 l0 -207 -26 45 c-34 60 -51
78 -103 112 l-45 28 42 0 c40 0 42 2 42 29 0 16 -13 72 -29 125 -23 79 -25 94
-11 81 9 -8 22 -15 28 -15 17 0 15 77 -3 136 -8 27 -15 50 -15 52 0 8 21 -1
42 -18z m-466 -117 c-3 -42 -6 -110 -6 -152 l0 -76 -28 60 c-16 33 -50 81 -76
106 l-47 46 73 46 c40 26 77 47 82 47 5 0 6 -33 2 -77z m-744 48 c80 -21 176
-64 218 -100 l25 -20 -55 19 c-98 33 -183 43 -265 31 -203 -30 -347 -137 -441
-326 -71 -144 -87 -220 -88 -420 -1 -148 2 -180 22 -249 12 -43 21 -80 19 -83
-9 -8 -68 119 -93 202 -25 83 -28 103 -28 260 0 144 3 182 22 249 95 342 358
515 664 437z m116 -116 c79 -19 162 -59 202 -98 l30 -29 0 -418 0 -417 -30
-60 c-75 -151 -241 -243 -434 -243 -107 0 -171 15 -255 60 -50 27 -68 44 -101
96 -22 35 -52 98 -67 141 -26 74 -28 87 -28 263 0 214 10 260 81 408 115 238
353 356 602 297z m555 -93 c35 -65 60 -175 52 -229 -3 -24 -3 -47 0 -53 3 -6
44 9 97 36 l90 45 22 -19 c18 -17 38 -21 147 -24 88 -2 131 -7 142 -17 31 -25
17 -29 -33 -10 -55 21 -180 26 -225 9 -14 -5 -30 -21 -35 -35 -15 -39 -79
-136 -113 -172 -35 -38 -68 -42 -122 -16 -19 9 -37 14 -40 11 -3 -2 0 -43 6
-89 14 -99 8 -272 -17 -487 -25 -215 -39 -182 -25 61 6 107 11 204 11 216 0
28 -28 27 -34 -1 -3 -13 -12 -52 -20 -88 -13 -57 -56 -275 -56 -285 0 -2 -10
-1 -22 3 l-22 5 22 -37 c35 -58 30 -78 -36 -169 -40 -55 -55 -56 -21 -1 17 27
24 57 27 114 5 93 -10 132 -68 172 -49 34 -56 61 -35 129 14 45 18 116 22 417
l6 363 63 -95 c57 -85 93 -123 105 -111 3 2 1 41 -3 87 -10 127 -9 258 2 258
5 0 22 18 36 40 31 47 38 44 77 -28z m550 -324 l67 -31 0 -378 0 -379 170 0
170 0 0 -480 0 -480 -345 0 c-351 0 -367 2 -336 36 4 5 36 71 71 146 58 128
65 137 86 132 52 -13 125 104 110 177 -3 16 10 86 29 165 35 139 43 204 25
204 -6 0 -19 -6 -30 -12 -33 -21 -55 1 -53 53 1 24 5 129 9 232 6 185 7 188
30 197 76 29 49 140 -35 140 -57 0 -89 -30 -97 -91 -9 -65 -27 -85 -94 -107
l-55 -17 -56 -108 c-31 -59 -74 -133 -95 -165 l-39 -57 -3 -261 c-3 -230 -1
-264 13 -278 9 -9 25 -16 36 -16 17 0 19 -7 19 -57 0 -32 4 -63 8 -68 10 -14
59 -45 71 -45 11 0 41 125 41 174 0 22 -6 38 -16 44 -15 8 -10 27 39 158 33
88 60 148 67 146 75 -18 97 -14 149 23 28 21 54 35 57 32 3 -3 -6 -47 -19 -99
-14 -51 -28 -105 -31 -120 -4 -18 -18 -34 -39 -44 -42 -21 -38 -17 -48 -67 -4
-25 -51 -133 -103 -242 -75 -153 -99 -194 -110 -188 -37 20 -186 149 -186 161
0 8 17 12 49 12 28 0 52 4 55 8 12 19 -18 86 -65 148 -70 91 -95 151 -113 277
-22 149 -21 207 2 207 30 0 42 22 42 78 0 29 7 111 16 180 18 137 24 389 11
436 -7 25 -6 28 10 21 76 -33 116 -7 210 137 42 65 70 98 85 101 53 12 154 -4
221 -35z m-7 -316 c30 -20 18 -72 -16 -72 -11 0 -23 -8 -28 -17 -5 -10 -12
-127 -15 -261 l-5 -243 30 -19 30 -18 -23 -12 c-13 -7 -34 -22 -47 -33 l-22
-21 -76 22 c-42 13 -78 21 -81 19 -2 -3 1 -15 7 -28 9 -20 3 -45 -34 -149 -24
-69 -47 -133 -51 -143 -9 -21 -73 -50 -93 -42 -11 4 -13 47 -10 248 l3 242 62
100 c34 55 74 127 90 160 26 56 32 61 77 76 73 23 103 55 112 118 8 65 51 100
90 73z m-2514 -369 c10 -20 21 -27 36 -26 19 2 22 -2 22 -37 0 -46 -13 -52
-32 -14 -7 15 -17 25 -23 23 -17 -7 -8 -60 14 -83 29 -31 28 -112 -4 -246 -14
-58 -25 -118 -25 -135 0 -46 -19 -9 -21 40 0 22 -8 62 -18 90 -16 45 -16 54
-3 99 11 37 12 62 5 100 -7 38 -10 191 -4 214 1 1 10 2 20 2 12 0 26 -12 33
-27z m3048 -713 l0 -470 -635 0 -635 0 0 45 0 45 590 0 590 0 0 425 0 425 45
0 45 0 0 -470z m-2557 443 c13 -12 35 -18 68 -18 66 0 70 -18 15 -66 -48 -42
-80 -98 -70 -123 9 -24 45 -30 196 -30 76 -1 134 -2 130 -3 -55 -15 -270 -46
-349 -50 l-103 -6 -19 -32 c-17 -29 -77 -83 -145 -130 -20 -15 -19 -16 20 -72
92 -131 79 -134 -50 -12 -96 91 -109 109 -81 109 18 0 87 61 116 102 l21 29
-52 55 -53 56 39 40 c65 68 230 167 278 168 11 0 28 -8 39 -17z m258 -75 c39
-11 50 -29 75 -117 l6 -24 -138 8 c-77 4 -142 9 -146 12 -18 10 -5 33 46 82
60 55 83 62 157 39z m-573 -260 c-10 -15 -40 -40 -65 -55 l-46 -27 -29 34
c-33 41 -34 47 -7 55 19 6 28 22 58 97 l10 27 50 -52 49 -51 -20 -28z m1461
-504 c-18 -22 -153 -83 -242 -108 -225 -65 -456 -55 -687 31 -82 30 -230 106
-230 118 0 2 33 -10 73 -26 88 -37 202 -65 325 -79 110 -14 257 -1 373 31 104
28 275 103 329 143 l45 33 12 -65 c9 -45 10 -69 2 -78z"/>
<path d="M11162 6358 l3 -513 73 -3 72 -3 0 -64 0 -65 89 0 89 0 5 -532 c5
-579 8 -619 62 -821 63 -230 141 -363 323 -550 186 -190 311 -274 500 -337
321 -106 715 -64 919 98 60 48 73 51 73 18 0 -13 3 -38 6 -55 l7 -31 683 0
684 0 -2 508 -3 507 -62 3 -63 3 0 69 0 70 -107 0 -106 0 6 1040 7 1040 -65 0
-65 0 0 65 0 65 -675 0 -675 0 0 -510 0 -510 80 0 80 0 0 -65 0 -65 86 0 85 0
-3 -422 c-3 -407 -4 -425 -25 -469 -81 -176 -315 -259 -495 -177 -65 30 -81
51 -103 133 -14 54 -15 155 -9 1008 l7 947 -67 0 -66 0 0 65 0 65 -675 0 -675
0 2 -512z m3098 259 c0 -117 -3 -282 -7 -368 l-6 -156 -36 9 c-20 6 -146 12
-281 15 -215 4 -263 2 -394 -16 -213 -31 -405 -82 -553 -148 -10 -4 -13 21
-13 108 l0 114 57 25 c161 69 373 257 434 385 41 88 47 168 12 173 -13 2 -45
-14 -85 -43 -35 -26 -75 -53 -90 -61 -23 -12 -297 -84 -320 -84 -4 0 -8 58 -8
130 l0 130 638 2 c350 2 640 2 645 0 4 -2 7 -99 7 -215z m-1780 66 l0 -146
-103 6 c-110 6 -176 24 -287 76 -104 50 -164 42 -269 -34 -54 -39 -108 -34
-261 25 -168 65 -211 65 -245 0 -26 -49 -15 -140 17 -140 17 0 37 33 38 61 0
54 36 57 130 9 74 -38 126 -77 158 -120 25 -35 31 -53 37 -126 6 -72 12 -92
38 -132 53 -79 158 -136 312 -169 78 -17 333 -13 392 5 21 7 35 7 39 1 3 -5 2
-128 -2 -273 l-7 -264 -27 -5 c-41 -9 -70 -46 -99 -127 -15 -40 -34 -78 -44
-84 -12 -8 -60 -2 -185 23 -200 40 -261 39 -315 -2 -19 -15 -44 -46 -56 -70
-25 -52 -51 -213 -51 -317 0 -103 27 -343 45 -405 37 -127 146 -192 431 -255
73 -15 149 -37 171 -48 23 -12 90 -77 167 -161 185 -205 296 -288 458 -341 37
-13 65 -26 62 -31 -7 -12 -147 -55 -224 -69 -36 -7 -114 -12 -175 -12 -367 -1
-690 173 -893 481 -76 116 -114 206 -152 363 -46 191 -50 271 -50 898 l0 580
-165 0 -165 0 0 475 0 475 640 0 640 0 0 -147z m956 -69 c-33 -69 -37 -74 -55
-62 -20 12 -20 13 -1 33 22 23 25 41 11 49 -5 4 -42 -7 -83 -23 -40 -16 -92
-35 -115 -42 -24 -6 -50 -21 -60 -31 -14 -16 -15 -20 -2 -33 19 -18 90 -5 161
31 l53 26 -40 -41 c-30 -32 -37 -44 -26 -50 10 -6 2 -23 -34 -70 -51 -68 -94
-100 -202 -155 l-73 -36 0 105 c0 104 0 105 28 119 43 23 72 54 65 72 -5 13
-15 15 -51 9 -33 -5 -43 -3 -40 6 5 15 17 19 169 53 125 29 208 64 279 120 41
32 45 33 48 15 2 -11 -12 -54 -32 -95z m-830 -336 c-10 -703 -12 -1440 -3
-1488 l9 -45 -27 38 c-15 21 -36 64 -48 95 -22 57 -22 60 -25 940 l-3 882 52
0 51 0 -6 -422z m1774 -598 l0 -1020 -50 0 -50 0 0 383 c0 210 3 669 7 1020
l6 637 44 0 43 0 0 -1020z m-2838 899 c125 -48 136 -51 210 -47 43 2 78 1 78
-2 0 -3 -7 -14 -15 -24 -8 -11 -15 -38 -15 -60 0 -27 -7 -47 -22 -63 -30 -32
-45 -29 -67 15 -30 59 -107 127 -193 171 -114 59 -155 55 -179 -16 -8 -26 -9
-26 -4 6 6 41 30 71 57 71 10 0 78 -23 150 -51z m544 6 c112 -51 176 -68 289
-74 l100 -6 3 -56 3 -56 -61 -6 c-68 -6 -92 -20 -88 -51 4 -31 45 -47 101 -40
l48 7 -3 -74 -3 -74 -153 2 c-165 2 -178 -3 -111 -42 29 -17 52 -20 152 -20
l118 0 -3 -25 c-5 -38 -72 -53 -253 -54 -130 0 -160 3 -225 23 -182 56 -270
135 -270 240 0 35 4 42 25 47 14 3 37 20 51 38 36 42 70 51 102 25 14 -11 33
-17 43 -14 10 4 27 1 38 -4 21 -12 70 1 82 20 4 6 15 6 33 -1 38 -14 103 -13
110 3 5 10 7 10 12 0 3 -7 12 -13 20 -13 8 0 14 -4 14 -9 0 -9 -33 -22 -64
-24 -42 -4 -48 -67 -6 -67 24 0 100 46 100 60 0 6 11 15 25 20 51 20 25 52
-52 65 -24 4 -45 11 -48 16 -3 5 -31 25 -61 45 -41 27 -58 34 -67 25 -8 -8 -3
-19 19 -42 l29 -31 -29 8 c-19 5 -31 2 -37 -7 -12 -20 -60 -21 -81 -2 -21 18
-48 11 -49 -14 0 -14 -2 -13 -9 5 -10 25 -47 30 -82 11 -19 -10 -20 -9 -15 12
14 59 47 134 63 146 22 16 42 17 26 1 -18 -18 -15 -24 21 -38 17 -8 40 -20 49
-28 21 -17 85 -25 94 -11 9 15 -23 57 -59 79 -48 30 -27 24 59 -15z m2032
-507 c103 -9 132 -15 132 -26 0 -10 -6 -12 -22 -8 -13 4 -118 10 -235 13 -394
11 -667 -29 -942 -138 -68 -28 -98 -31 -75 -10 18 18 155 70 246 94 289 78
585 103 896 75z m110 -65 c12 -3 22 -10 22 -17 0 -8 -55 -11 -193 -12 -193 0
-198 -1 -407 -49 -14 -3 -5 4 20 15 40 19 43 23 26 32 -39 22 -194 -13 -325
-73 l-83 -39 -96 10 c-52 6 -97 12 -100 14 -6 7 207 73 288 90 77 15 228 33
335 40 79 5 483 -4 513 -11z m-15 -59 c36 -6 37 -8 37 -48 l0 -42 -189 4
c-285 6 -486 -24 -671 -102 -46 -20 -86 -36 -87 -36 -1 0 0 7 3 15 8 21 193
108 304 143 81 26 209 51 325 65 53 7 239 7 278 1z m26 -129 c11 -6 12 -92 6
-470 -4 -255 -4 -522 0 -594 l7 -131 167 -2 166 -3 0 -180 0 -180 -80 -12
c-343 -49 -854 -39 -1121 23 -94 22 -214 67 -302 115 -87 46 -216 137 -257
179 l-27 28 48 -10 c61 -13 167 3 240 38 75 36 145 102 179 171 25 52 29 72
36 198 4 77 8 266 8 420 l1 281 33 13 c192 76 303 107 437 122 93 9 441 6 459
-6z m-1769 -425 c0 -16 -4 -30 -10 -30 -5 0 -32 -45 -60 -100 l-50 -100 -56 0
c-31 0 -118 14 -193 31 -269 61 -308 27 -318 -271 -8 -226 35 -395 119 -465
86 -72 312 -154 449 -162 78 -5 92 -3 143 20 66 30 72 52 26 90 -43 36 -125
65 -285 99 -174 36 -273 79 -309 135 -47 71 -58 188 -31 318 25 119 63 133
260 100 182 -32 188 -38 193 -205 2 -77 -1 -130 -10 -160 -13 -42 -14 -37 -10
83 5 142 -9 202 -52 230 -27 18 -140 43 -238 53 -96 10 -112 -3 -128 -98 -22
-130 4 -262 65 -322 46 -47 112 -74 255 -106 216 -49 321 -96 383 -173 19 -23
58 -96 86 -161 61 -140 118 -231 192 -305 50 -51 182 -145 242 -172 35 -16 34
-22 -7 -44 -30 -16 -39 -17 -82 -5 -76 20 -214 82 -269 120 -67 46 -157 132
-277 267 -119 134 -146 150 -333 188 -250 52 -369 117 -396 217 -19 74 -39
272 -39 399 0 202 32 327 94 373 38 29 136 26 288 -8 65 -14 138 -26 162 -26
54 0 66 13 97 109 33 97 99 151 99 81z m25 -510 c9 -30 28 -74 41 -97 33 -57
343 -368 424 -425 229 -162 485 -228 1000 -259 215 -13 429 -1 548 29 42 11
75 15 79 9 9 -15 -8 -24 -113 -60 -381 -132 -778 -127 -1194 15 -130 44 -289
117 -372 171 -47 30 -59 33 -68 22 -27 -33 124 -155 291 -234 450 -213 930
-235 1375 -62 l73 29 3 -186 c2 -116 -1 -186 -7 -188 -5 -2 -293 -3 -640 -2
l-630 3 -9 65 c-5 36 -10 67 -12 69 -1 1 -21 -11 -43 -29 l-40 -32 -76 43
c-186 106 -276 199 -356 369 -115 242 -121 252 -186 302 -84 63 -203 105 -424
148 -144 28 -219 118 -222 267 -3 116 9 172 37 179 31 7 178 -13 241 -34 64
-22 85 -59 84 -152 l0 -65 -15 39 c-38 104 -97 150 -195 150 -66 1 -109 -22
-109 -59 0 -28 30 -41 59 -26 11 6 39 11 64 11 49 0 73 -19 104 -85 10 -21 34
-50 53 -63 29 -20 34 -28 31 -55 -2 -18 -10 -44 -17 -60 -29 -54 20 -67 59
-14 41 54 52 103 51 227 -1 186 -22 210 -213 245 -105 19 -204 19 -240 0 -18
-9 -37 -33 -52 -67 -20 -46 -23 -69 -24 -178 0 -142 10 -184 61 -240 50 -55
147 -95 317 -130 165 -34 246 -61 272 -89 16 -19 15 -20 -30 -27 -80 -12 -168
3 -328 56 -84 27 -163 50 -174 50 -12 0 -35 13 -52 29 -90 84 -135 340 -96
555 25 144 53 158 230 120 165 -35 258 -48 289 -40 20 5 35 26 73 104 l48 97
6 -195 c5 -140 11 -210 24 -250z m663 -575 c205 -86 381 -115 752 -122 260 -5
514 8 639 33 28 6 33 4 30 -11 -5 -24 -61 -42 -184 -61 -78 -13 -152 -15 -340
-11 -448 10 -734 63 -950 175 -61 32 -225 145 -225 156 0 2 43 -25 95 -59 53
-35 135 -80 183 -100z m1552 -310 l0 -475 -650 0 -650 0 0 23 c0 12 -3 32 -6
45 l-6 22 611 0 611 0 0 430 0 430 45 0 45 0 0 -475z m-1580 117 c181 -76 339
-120 530 -148 90 -13 157 -15 305 -11 214 6 315 23 503 86 61 20 112 33 112
29 0 -22 -205 -95 -365 -129 -128 -27 -384 -37 -522 -19 -254 31 -592 154
-723 261 -20 17 -16 16 20 -4 25 -13 88 -43 140 -65z m136 -429 c3 -16 10 -41
15 -58 12 -36 -3 -51 -91 -95 -227 -114 -532 -129 -802 -40 -74 25 -192 82
-228 110 -21 17 -15 16 40 -6 255 -103 513 -110 775 -23 89 30 226 97 255 125
21 20 29 17 36 -13z"/>
<path d="M13781 5694 c-62 -70 -110 -175 -117 -254 -9 -90 6 -151 74 -299 56
-125 57 -127 57 -221 0 -87 -3 -101 -33 -165 -37 -78 -37 -78 -24 -83 16 -5
78 54 113 109 50 78 79 169 79 247 0 80 -13 124 -73 258 -72 159 -80 259 -32
395 22 63 5 68 -44 13z m-16 -181 c0 -104 1 -111 39 -193 90 -199 90 -200 91
-285 0 -85 -26 -174 -65 -225 l-20 -25 10 35 c13 46 13 155 -1 205 -6 22 -34
92 -62 155 -52 115 -52 115 -52 220 0 93 3 111 27 163 15 31 28 57 30 57 2 0
3 -48 3 -107z"/>
<path d="M14047 5584 c-21 -21 -52 -68 -70 -104 -29 -59 -32 -73 -32 -160 0
-95 0 -95 55 -210 54 -113 55 -116 55 -205 0 -78 -4 -97 -27 -142 -15 -28 -32
-54 -38 -58 -16 -10 -12 -35 6 -35 27 0 133 115 162 177 23 50 27 71 27 153
l0 95 -59 125 c-57 120 -60 128 -60 205 -1 44 5 98 13 121 7 22 11 49 10 59
-3 16 -10 13 -42 -21z m41 -364 c61 -125 77 -183 69 -254 -5 -50 -36 -125 -70
-171 -13 -17 -13 -13 0 39 21 84 5 163 -60 296 -49 101 -51 108 -51 190 -1 70
3 94 23 135 l25 50 6 -90 c6 -81 12 -100 58 -195z"/>
<path d="M13486 5553 c-66 -83 -89 -149 -84 -243 3 -66 10 -88 55 -185 29 -60
57 -135 63 -165 15 -75 -2 -164 -45 -235 -19 -30 -29 -57 -24 -61 24 -14 124
87 165 168 22 42 28 71 32 139 5 93 6 87 -83 288 -28 62 -39 102 -42 150 -4
58 0 84 28 180 10 35 -24 17 -65 -36z m1 -126 c1 -77 6 -93 89 -277 35 -76 39
-93 39 -165 0 -71 -4 -87 -33 -144 -36 -68 -48 -76 -32 -20 25 85 7 171 -66
329 -44 94 -49 112 -48 175 0 51 6 84 23 123 13 28 24 52 26 52 1 0 2 -33 2
-73z"/>
<path d="M12637 4173 c-34 -33 86 -240 195 -338 64 -58 146 -101 161 -86 8 8
-17 37 -85 100 -88 83 -187 210 -232 299 -16 32 -26 38 -39 25z"/>
</g>
</svg>
